<?xml version="1.0" encoding="utf-8"?>
<!-- Generator: Adobe Illustrator 24.0.1, SVG Export Plug-In . SVG Version: 6.00 Build 0)  -->
<svg version="1.1" id="Layer_1" xmlns="http://www.w3.org/2000/svg" xmlns:xlink="http://www.w3.org/1999/xlink" x="0px" y="0px"
	 viewBox="0 0 512 512" style="enable-background:new 0 0 512 512;" xml:space="preserve">
<style type="text/css">
	.st0{fill:none;stroke:#000001;stroke-miterlimit:10;}
	.st1{fill:none;stroke:#010102;stroke-miterlimit:10;}
	.st2{fill:#F7F9FB;}
	.st3{fill:#010102;}
	.st4{fill:#FFFFFF;}
	.st5{fill:#474747;}
	.st6{fill-rule:evenodd;clip-rule:evenodd;}
	.st7{fill:#000001;}
	.st8{fill:#010101;}
	.st9{fill:#FD8274;}
	.st10{fill:#1A2DD8;}
	.st11{fill:#FFFFFF;stroke:#1A2DD8;stroke-miterlimit:10;}
	.st12{fill:#FD8274;stroke:#FD8274;stroke-miterlimit:10;}
	.st13{fill:#FD8274;stroke:#000000;stroke-width:8;stroke-linejoin:round;stroke-miterlimit:10;}
	.st14{fill-rule:evenodd;clip-rule:evenodd;fill:#1A2DD8;}
	.st15{fill-rule:evenodd;clip-rule:evenodd;fill:#FD8274;}
	.st16{fill:none;stroke:#000000;stroke-width:8;stroke-miterlimit:10;}
</style>
<g>
	<path class="st9" d="M110.21,273.02l26.21,25.19c0,0,16.34-26.55,28.94-14.3c12.6,12.26,7.83,27.91,7.83,27.91
		s17.02-5.79,23.49,1.7c6.47,7.49,5.79,23.49,5.79,23.49s20.43-6.13,27.23,1.36c6.81,7.49,4.09,24.85,4.09,24.85
		s24.51,2.38,25.53,10.55c1.02,8.17-5.79,26.21-5.79,26.21c23.83,17.36,39.15-13.62,39.15-13.62c17.7,4.09,24.17-23.83,24.17-23.83
		c25.19-0.68,26.89-20.09,26.89-20.09c38.47-3.4,22.47-35.4,22.47-35.4c-37.79-13.96-82.38-87.15-82.38-87.15l-41.19,6.47
		c-17.36,54.13-66.38,29.96-66.38,29.96l21.45-60.94l20.09-13.62l-34.72-25.19L110.21,273.02z"/>
	<path d="M231.59,412.32c-9.45,0-16.73-9.06-21.18-16.66l-1.62-2.77l-3.2-0.19c-11.6-0.68-21.61-8.67-24.92-19.87l-1.31-4.43
		l-4.62,0.13c-0.34,0.01-0.69,0.01-1.03,0.01c-13.37,0-23.34-7.17-26.66-19.17l-0.9-3.25l-3.25-0.92
		c-11.43-3.24-19.58-9.65-22.36-17.58c-2.53-7.22-0.61-15.59,5.55-24.2l2.88-4.03l-16.12-16.99l-4.35,4.64
		c-3.5,3.73-8.45,5.87-13.58,5.87c-3.26,0-6.47-0.86-9.3-2.49L51.08,270.5c-8.87-5.12-11.92-16.52-6.8-25.41l78.57-136.12
		c3.31-5.73,9.49-9.29,16.14-9.29c3.24,0,6.45,0.86,9.27,2.49l34.57,19.94c8.3,4.79,11.61,15.33,7.53,24l-2.11,4.48l34.63,25.26
		l30.81-20.86l0.1-0.07c0.75-0.55,1.64-0.86,2.58-0.88l66.87-1.7l-2.47-7.64c-2.68-8.28,0.86-17.45,8.4-21.81l34.57-19.93
		c2.83-1.63,6.03-2.49,9.27-2.49c6.65,0,12.83,3.56,16.14,9.29l78.57,136.12c5.13,8.89,2.08,20.28-6.8,25.41l-34.57,19.93
		c-2.83,1.64-6.04,2.5-9.29,2.5c0,0,0,0,0,0c-1.62,0-3.24-0.21-4.81-0.63c-4.4-1.18-8.2-3.91-10.7-7.68l-4.6-6.94L373.7,308.2
		l0.74,2.86c2.13,8.25,0.57,17.11-4.28,24.31c-4.77,7.08-12.24,11.78-20.49,12.88l-3.41,0.46l-1.33,3.18
		c-3.28,7.85-10.62,12.35-22.42,13.75l-3.68,0.44l-1.26,3.49c-2.51,6.96-8.51,18.92-20.54,20.87l-2.78,0.45l-1.43,2.43
		c-6.16,10.46-15.63,16.71-25.33,16.71c-4.75,0-9.48-1.46-14.07-4.33l-3.58-2.24l-3.32,2.61
		C241.25,410.22,236.23,412.32,231.59,412.32z M230.58,371.28c-0.48,0.89-2.48,3.78-10.35,13.15l-3.47,4.15l2.12,3.63
		c3.14,5.39,7.12,10.9,12.85,10.9c0.43,0,0.87-0.03,1.3-0.1c3.72-0.58,7.67-3.97,11.75-10.08c2.68-4.02,6.98-11.59,5.62-17.2
		c-1.63-6.72-12.29-8.38-13.75-8.38C233.32,367.35,231.35,369.34,230.58,371.28z M254.21,397.62c1.48,2.28,10.21,4.77,10.21,4.77
		c12.26,1.87,21.27-13.27,21.27-13.27l-6.32-3.83c-3.83-1.88-18.52-15.55-20.57-19.16C258.81,366.13,264.09,385.02,254.21,397.62z
		 M218.6,338.85c-0.5,0-1.04,0.02-1.6,0.06c-12.32,0.88-19.89,12.15-25.41,20.37c-0.66,0.98-1.3,1.93-1.93,2.84l-1.22,1.77
		l0.18,2.14c0.8,9.66,7.88,16.88,17.22,17.56l3,0.22l2.27-2.62c20.21-23.2,20.29-31.68,18.11-36.48
		C228.22,342.52,225.52,338.85,218.6,338.85z M257.03,351.83c1.1,0,2.63,0.37,3.73,2.12c12.39,19.57,26.55,25.82,30.59,27.27
		l1.01,0.36l1.08-0.01c4.28-0.05,10.31-2.33,14.72-12.89l1.96-4.71l-4.33-2.7c-13.2-8.23-24.4-16.3-36.15-28.95
		c-1.36-1.46-1.69-2.93-1-4.5c0.81-1.87,2.8-3.28,4.61-3.28c1.08,0,2.08,0.51,3.06,1.56c11.66,12.55,22.9,20.48,38.39,29.93l1.64,1
		l1.92-0.14c4.07-0.29,9.21-0.89,12.92-2.94l9.83-5.42l-9.97-5.16c-19.15-9.91-33.55-27.47-42.72-39.82
		c-1.13-1.53-1.33-2.91-0.61-4.34c0.86-1.7,2.86-2.99,4.65-2.99c1.24,0,2.31,0.63,3.27,1.91c11.07,14.9,26.5,33,47.8,40.73l0.28,0.1
		l0.29,0.07c1.13,0.28,2.29,0.43,3.45,0.43c5.02,0,10-2.7,13.68-7.41c4.27-5.48,5.98-12.64,4.46-18.69l-0.63-2.49l-2.24-1.27
		c-35.2-19.92-54.54-47.17-78.02-83.48l-2.08-3.22l-37.37,5.23l-1.31,3.19c-9.34,22.83-24.21,34.41-44.19,34.41
		c-7.13,0-14.95-1.49-23.24-4.42c-1.69-0.6-2.98-1.66-3.56-2.91c-0.46-0.99-0.45-2.08,0.03-3.31l23.26-60.28
		c0.33-0.86,0.92-1.59,1.69-2.12l16.95-11.47l-31.47-22.96l-66.31,114.86l16.89,18.67l4.25-6.51c4.42-6.76,11.41-7.77,15.19-7.77
		c11.21,0,23.59,8.21,24.04,21.46l0.21,6.19l6.18-0.41c0.66-0.04,1.33-0.07,1.98-0.07c6.22,0,11.61,2.02,15.18,5.68
		c3.32,3.41,5,8.17,4.85,13.77l-0.19,7.38l7.26-1.32c1.97-0.36,3.93-0.54,5.82-0.54c7.05,0,13.11,2.53,16.63,6.94
		c3.32,4.16,4.3,9.79,2.82,16.28l-1.4,6.18l6.25,1.06c0.66,0.11,1.32,0.25,1.97,0.41l6.35,1.58l1.02-6.47
		C252.84,353.03,255.1,351.83,257.03,351.83z M185.72,313.82c-0.63,0-1.29,0.03-1.96,0.1c-9.47,0.91-19.07,12.32-23.26,18.92
		c-6.28,9.9-4.72,14.24-4.21,15.67c2.5,6.95,8.8,10.94,17.28,10.94c1.66,0,3.38-0.16,5.09-0.47l2.44-0.45l1.69-2.44
		c16.44-23.61,15.75-31.99,13.31-36.66C195.02,317.33,192.21,313.82,185.72,313.82z M154.27,286.84c-3.36,0-6.61,1.93-14.13,12.09
		c-3.6,4.86-7.61,10.95-8.93,13.57c-2.57,5.08-3.04,9.64-1.38,13.55c2.4,5.68,8.43,8.22,14.02,9.96l6.19,1.92l1.37-5.98
		c1.45-3.12,11.17-16.9,13.05-18.95l0.75-0.71l0.48-1.02c1.59-3.36,4.82-11.88,0.62-18.53c-1.38-2.19-4.78-5.87-12.01-5.9H154.27z
		 M285.07,213.43c0.75,0,2.31,0,4.2,2.93c20.63,31.97,40.11,62.17,73.34,82.62l4.57,2.81l25.19-32.22l-62.54-108.32l-71.92,1.83
		l-53.67,36.33l-21.17,54.89l7.02,1.37c3.29,0.64,6.47,0.97,9.46,0.97c23.59,0,32.97-19.44,37.96-34.07
		c0.57-1.69,2.08-2.9,3.85-3.09l42.92-6.01C284.55,213.45,284.82,213.43,285.07,213.43z M372.95,109.58c-1.62,0-3.22,0.42-4.62,1.2
		l-34.58,19.99c-4.5,2.6-6.1,8.41-3.55,12.94l78.62,136.13c1.69,2.93,4.88,4.75,8.32,4.75c1.62,0,3.22-0.42,4.62-1.2l34.58-19.99
		c4.51-2.6,6.1-8.41,3.55-12.94l-78.62-136.13C379.58,111.4,376.39,109.58,372.95,109.58z M84.99,279.63l5.25,2.97
		c1.39,0.78,2.99,1.2,4.62,1.2c0.85,0,1.71-0.11,2.54-0.34c2.47-0.66,4.52-2.23,5.79-4.42l78.58-136.07c2.58-4.59,0.99-10.4-3.52-13
		l-34.52-19.95c-1.46-0.82-3.06-1.24-4.68-1.24c-3.44,0-6.63,1.82-8.32,4.76L52.14,249.62c-2.58,4.59-0.99,10.4,3.52,13l29.36,16.95
		L84.99,279.63z"/>
	<g>
		<path class="st10" d="M397.19,278.83l-5.11-8.9l-24.91,31.86l-4.57-2.81c-1.07-0.66-2.12-1.32-3.16-2
			c4.81,3.46,11.45,7.69,15.18,10.03l22.32-28.55L397.19,278.83z"/>
		<path class="st10" d="M210.58,184.17l-12.62,8.54c-0.77,0.52-1.35,1.25-1.69,2.12l-23.26,60.28c-0.48,1.23-0.49,2.32-0.03,3.31
			c0.58,1.25,1.87,2.31,3.56,2.91c8.29,2.93,16.11,4.42,23.24,4.42c19.99,0,34.86-11.58,44.19-34.41l1.31-3.19l37.37-5.23l0.02,0.02
			l9.84-1.57c-1.08-1.66-2.15-3.33-3.23-5c-1.89-2.93-3.45-2.93-4.2-2.93c-0.25,0-0.52,0.02-0.79,0.06l-42.92,6.01
			c-1.76,0.19-3.27,1.4-3.85,3.09c-5,14.63-14.37,34.07-37.96,34.07c-2.99,0-6.17-0.33-9.46-0.97l-7.02-1.37l21.17-54.89
			l53.67-36.33l71.42-1.82l-6.09-8.93l-66.87,1.7c-0.94,0.02-1.83,0.33-2.58,0.88l-0.1,0.07l-24.32,16.46l-0.18,0.21l-18.13,12.26
			L210.58,184.17z"/>
	</g>
	<path class="st10" d="M254.4,397.84c-0.06-0.08-0.14-0.15-0.19-0.23c7.13-9.1,6.36-21.47,5.38-27.65l-0.61-1.28
		c-1.29-4.45-4.81-6.14-7.54-6.77l-0.04,0.23l-2.34-0.58c-0.69-0.04-1.14-0.02-1.14-0.02l0.05-0.25l-2.92-0.73
		c-0.65-0.16-1.31-0.3-1.97-0.41l-6.25-1.06l1.4-6.18c1.47-6.49,0.5-12.12-2.82-16.28c-3.52-4.41-9.58-6.94-16.63-6.94
		c-1.89,0-3.85,0.18-5.82,0.54l-7.26,1.32l0.19-7.38c0.15-5.6-1.53-10.36-4.85-13.77c-3.57-3.66-8.96-5.68-15.18-5.68
		c-0.65,0-1.32,0.02-1.98,0.07l-6.18,0.41l-0.21-6.19c-0.45-13.26-12.83-21.46-24.04-21.46c-3.78,0-10.77,1.01-15.19,7.77
		l-4.25,6.51l-5.01,7.59l-2.88,4.03c-6.16,8.61-8.08,16.98-5.55,24.2c2.78,7.93,10.93,14.34,22.36,17.58l3.25,0.92l0.9,3.25
		c3.32,12,13.29,19.17,26.66,19.17c0.34,0,0.68,0,1.03-0.01l4.62-0.13l1.31,4.43c3.3,11.2,13.31,19.19,24.92,19.87l3.2,0.19
		l1.62,2.77c4.45,7.6,11.73,16.66,21.18,16.66c4.63,0,9.66-2.11,14.94-6.26l1.61-1.27C250.81,402.48,253.27,399.36,254.4,397.84z
		 M151.4,331.95l-1.37,5.98l-6.19-1.92c-5.58-1.74-11.61-4.28-14.02-9.96c-1.66-3.91-1.19-8.47,1.38-13.55
		c1.33-2.62,5.33-8.71,8.93-13.57c7.52-10.16,10.76-12.09,14.13-12.09h0.02c7.22,0.03,10.62,3.71,12.01,5.9
		c4.2,6.65,0.96,15.18-0.62,18.53l-0.48,1.02l-0.75,0.71C162.57,315.05,152.85,328.83,151.4,331.95z M182.8,356.09l-1.69,2.44
		l-2.44,0.45c-1.71,0.31-3.42,0.47-5.09,0.47c-8.49,0-14.78-3.99-17.28-10.94c-0.51-1.43-2.07-5.77,4.21-15.67
		c4.18-6.6,13.79-18.01,23.26-18.92c0.68-0.06,1.34-0.1,1.96-0.1c6.49,0,9.29,3.51,10.39,5.6
		C198.55,324.09,199.24,332.48,182.8,356.09z M208.83,383.81l-3-0.22c-9.33-0.68-16.41-7.9-17.22-17.56l-0.18-2.14l1.22-1.77
		c0.63-0.91,1.27-1.87,1.93-2.84c5.52-8.23,13.09-19.49,25.41-20.37c0.56-0.04,1.09-0.06,1.6-0.06c6.92,0,9.62,3.67,10.62,5.86
		c2.18,4.8,2.1,13.28-18.11,36.48L208.83,383.81z M233.02,403.02c-0.43,0.07-0.87,0.1-1.3,0.1c-5.72,0-9.7-5.51-12.85-10.9
		l-2.12-3.63l3.47-4.15c7.87-9.37,9.87-12.26,10.35-13.15c0.78-1.94,2.75-3.93,6.07-3.93c1.46,0,12.12,1.67,13.75,8.38
		c1.36,5.61-2.94,13.18-5.62,17.2C240.69,399.04,236.73,402.44,233.02,403.02z"/>
</g>
</svg>
