<?xml version="1.0" encoding="utf-8"?>
<!-- Generator: Adobe Illustrator 24.0.1, SVG Export Plug-In . SVG Version: 6.00 Build 0)  -->
<svg version="1.1" id="Layer_1" xmlns="http://www.w3.org/2000/svg" xmlns:xlink="http://www.w3.org/1999/xlink" x="0px" y="0px"
	 viewBox="0 0 512 512" style="enable-background:new 0 0 512 512;" xml:space="preserve">
<style type="text/css">
	.st0{fill:none;stroke:#000001;stroke-miterlimit:10;}
	.st1{fill:none;stroke:#010102;stroke-miterlimit:10;}
	.st2{fill:#F7F9FB;}
	.st3{fill:#010102;}
	.st4{fill:#FFFFFF;}
	.st5{fill:#474747;}
	.st6{fill-rule:evenodd;clip-rule:evenodd;}
	.st7{fill:#000001;}
	.st8{fill:#010101;}
	.st9{fill:#FD8274;}
	.st10{fill:#1A2DD8;}
	.st11{fill:#FFFFFF;stroke:#1A2DD8;stroke-miterlimit:10;}
	.st12{fill:#FD8274;stroke:#FD8274;stroke-miterlimit:10;}
	.st13{fill:#FD8274;stroke:#000000;stroke-width:8;stroke-linejoin:round;stroke-miterlimit:10;}
	.st14{fill-rule:evenodd;clip-rule:evenodd;fill:#1A2DD8;}
	.st15{fill-rule:evenodd;clip-rule:evenodd;fill:#FD8274;}
	.st16{fill:none;stroke:#000000;stroke-width:8;stroke-miterlimit:10;}
</style>
<g>
	<path d="M67.79,419.82c-1.33,0.11-2.59-0.4-3.46-1.4c-0.72-0.83-1.07-1.89-0.99-2.98c0.08-1.09,0.58-2.09,1.41-2.8l48.19-41.68
		c0.66-0.57,1.46-0.91,2.32-0.98c1.33-0.11,2.59,0.4,3.46,1.4c1.48,1.71,1.29,4.3-0.42,5.78l-48.19,41.68
		C69.46,419.4,68.66,419.74,67.79,419.82z M36.54,401.47l38.38-33.2c1.71-1.48,1.9-4.07,0.42-5.78c-0.87-1.01-2.13-1.52-3.46-1.4
		c-0.86,0.07-1.66,0.41-2.32,0.98l-38.38,33.2c-0.83,0.72-1.33,1.71-1.41,2.8s0.27,2.15,0.99,2.98c0.87,1.01,2.13,1.52,3.46,1.4
		C35.08,402.38,35.88,402.04,36.54,401.47z M82.46,454.56l43.28-37.44c0.83-0.72,1.33-1.71,1.41-2.8c0.08-1.09-0.27-2.15-0.99-2.98
		c-0.87-1.01-2.13-1.52-3.46-1.4c-0.86,0.07-1.66,0.41-2.32,0.98L77.1,448.36c-0.83,0.72-1.33,1.71-1.41,2.8s0.27,2.15,0.99,2.98
		c0.87,1.01,2.13,1.52,3.46,1.4C81,455.47,81.8,455.13,82.46,454.56z M194.63,250.73c0.62-0.19,1.25-0.38,1.88-0.53l0.35-0.09
		l0.21-0.29c0.08-0.1,0.16-0.23,0.23-0.33c0.17-0.24,0.34-0.48,0.51-0.69c11.09-12.81,22.2-25.6,33.31-38.39
		c26.06-30.01,53-61.04,79.26-91.8c22.92-26.84,50.39-40.97,83.98-43.19c0.76-0.05,1.51-0.08,2.21-0.08c5.19,0,9.12,1.38,11.69,4.09
		c2.74,2.9,3.97,7.39,3.63,13.34c-1.16,20.81-7.41,40.06-18.55,57.24c-1.38,2.12-1.92,3.85-1.63,5.14c0.08,0.33,0.31,1.35,1.92,2.31
		c0.78,0.47,1.54,0.71,2.23,0.71c1.57,0,3.08-1.17,4.74-3.7c12.21-18.54,18.96-40,20.06-63.81c0.31-6.66-1.87-12.78-6.12-17.24
		c-4.09-4.29-9.77-6.65-16-6.65c-0.25,0-0.5,0-0.75,0.01c-24.5,0.74-46.81,7.78-66.32,20.92c-12.27,8.27-22.06,19.09-32.69,31.35
		c-0.81,0.93-3.32,3.35-5.17,3.35c-0.24,0-0.46-0.04-0.67-0.11c-6.82-2.5-13.43-5.25-20.44-8.17c-1.7-0.71-5.81-2.41-5.81-2.41
		l-0.11,0.12l-17.71-7.38c-0.49-0.19-0.98-0.4-1.48-0.62l-44.02-18.35l-0.09-0.02c-0.74-0.15-1.45-0.42-2.19-0.82
		c-0.41-0.22-0.82-0.42-1.3-0.66l-26.74-11.15c-3.15-1.17-6.29-2.49-9.05-3.65c-2.84-1.19-5.77-2.42-8.71-3.52
		c-3.74-1.4-7.42-2.11-10.93-2.11c-6.66,0-12.9,2.53-18.56,7.51c-4.26,3.75-8.31,7.9-12.23,11.91c-0.87,0.89-1.74,1.78-2.62,2.67
		c-4.77,4.84-7,9.6-6.66,14.15c0.35,4.62,3.37,9.07,8.97,13.24c9.88,7.37,34.11,25.43,34.11,25.43
		c16.98,12.66,33.96,25.31,50.94,37.98c6.62,4.94,13.22,9.91,20.04,15.04l10.75,8.08l-28.96,33.52c-1.15,1.33-2.31,2.66-3.49,4.01
		c-2.26,2.59-4.59,5.27-6.84,7.94c-1.25,1.48-1.85,3.11-1.61,4.35c0.15,0.81,0.67,1.45,1.53,1.92c0.26,0.14,0.62,0.21,1.06,0.21
		C191.86,251.56,193.26,251.14,194.63,250.73z M154.87,74.59l46.87,19.45c22.23,9.22,44.45,18.45,66.67,27.67
		c4.1,1.7,8.19,3.43,12.53,5.27l8.07,3.41l-53.92,62.33l-0.73-0.45c-0.49-0.3-0.96-0.59-1.48-0.9c-1.02-0.61-1.99-1.18-2.91-1.86
		c-35.52-26.51-73.41-54.79-111.66-83.41c-3.21-2.4-5.38-4.5-5.57-6.94c-0.19-2.43,1.53-4.7,4.36-7.59
		c3.46-3.53,7.15-7.23,11.97-11.99c5.06-5,9.97-7.32,15.47-7.32C147.71,72.25,151.08,73.02,154.87,74.59z M209.52,413.49
		c14.83-7.85,20.21-23.33,13.39-38.52l-3.32-7.41c-4.81-10.73-9.78-21.82-14.84-32.64c-1.73-3.71-0.6-5.66,1.94-7.77
		c18.32-15.25,36.55-30.66,53.52-45.05c6.08-5.15,11.98-10.27,18.25-15.71c2.82-2.44,5.66-4.91,8.56-7.41l0.79-0.68l0.65,0.82
		c0.58,0.73,1.12,1.4,1.64,2.05c1.05,1.3,1.95,2.42,2.83,3.6l9.96,13.33l0.32,0.09c3.28,0.99,6.63,1.73,9.94,2.2l2.38,0.34
		l-17.23-23.1c-0.67-0.9-1.28-1.83-1.99-2.91c-0.35-0.53-0.71-1.09-1.11-1.69l-0.49-0.73l62.26-53.94l0.59,1.09
		c0.36,0.65,0.69,1.24,1.01,1.78c0.63,1.08,1.17,2.02,1.59,3.04c11.55,27.87,21.62,52.2,30.83,74.48l0.2,0.48l0.5,0.12
		c2.49,0.57,5.09,1.01,7.73,1.31l1.68,0.19l-4.43-10.68c-1.1-2.28-1.78-3.92-2.24-5.42l-20.22-48.82
		c-2.95-7.07-5.74-13.75-8.35-20.66c-0.7-1.85,0.67-4.84,1.92-6.08c2.65-2.64,5.55-5.1,8.41-7.52c1.02-0.87,2.04-1.73,3.05-2.61
		c3.23-2.8,5.32-5.02,2.77-8.06c-1.39-1.66-2.53-1.66-2.91-1.66c-1.72,0-3.56,1.49-5.29,3.11c-0.38,0.36-0.78,0.7-1.18,1.04
		l-0.55,0.47L221.92,303.99c-22.99,19.92-47.67,36.29-73.36,48.67c-2.2,1.06-4.14,1.57-5.94,1.57c-2.45,0-4.68-0.99-6.61-2.93
		c-3.44-3.47-3.86-7.58-1.27-12.57c0.81-1.56,1.59-3.17,2.35-4.73c1.68-3.47,3.42-7.06,5.59-10.33
		c11.43-17.17,23.03-34.03,34.9-51.23l0.49-0.71c2.37-3.38,3.58-5.41,0.72-7.73c-0.92-0.75-1.81-1.14-2.62-1.14
		c-1.94,0-3.63,2.09-5.27,4.12c-0.76,0.95-1.53,1.89-2.35,2.89c-2.73,3.34-5.56,6.78-8.01,10.38c-1.02,1.49-2.5,3.2-4.94,3.2
		c-1.06,0-2.26-0.33-3.77-1.03c-13-6.05-26.98-12.49-41.11-18.53c-3.61-1.54-7.91-2.49-12.13-2.67c-0.28-0.01-0.55-0.02-0.82-0.02
		c-8.34,0-13.66,5.5-19.28,11.31l-1.27,1.31c-3.28,3.36-4.78,6.25-4.59,8.83c0.19,2.56,2.06,5.16,5.71,7.94l5.03,3.83
		c13.21,10.06,26.87,20.47,40.52,30.41c4.18,3.04,5.88,5.72,2.9,11.17c-3.94,7.2-2.82,15.34,2.92,21.25
		c3.58,3.69,8.09,5.72,12.72,5.72c2.69,0,5.33-0.68,7.87-2.02c2.13-1.12,3.93-1.67,5.51-1.67c3.51,0,5.71,2.64,7.83,5.58
		c9.46,13.09,19.41,26.17,29.05,38.83l4.45,5.85c2.57,3.38,5.31,5.09,8.15,5.09C206.66,414.64,208.07,414.25,209.52,413.49z
		 M165.83,353.8l29.83-18.12l4.22,9.26c3.07,6.72,6.04,13.25,9.01,19.78l0.4,0.89c1.55,3.4,3.15,6.92,4.68,10.42
		c6.17,14.05,4.78,18.94-8.23,29.05l-0.8,0.62L165.83,353.8z M80.98,281.96l0.87-0.81c1.07-1,2.09-2.06,3-3
		c2.16-2.24,4.2-4.35,6.71-5.74c1.1-0.61,4.96-2.59,8.66-2.59c1,0,1.89,0.15,2.66,0.46c11.92,4.77,23.42,9.88,35.6,15.31
		c4.09,1.82,8.2,3.65,12.35,5.48l1.05,0.46l-18.3,29.98L80.98,281.96z M383.41,139.68l0.1-0.02c0.66-0.12,1.34-0.75,2.71-2.5
		c0.14-0.18,0.69-0.86,0.69-0.86l-0.05-0.42c-2.59-21.04-14.97-33.47-34.96-35.01c-1.25,0.01-3.82,1.97-4.17,3.17l-0.04,0.13l0,0.14
		c-0.01,1.18,1.63,3.7,2.75,4.22l0.13,0.06l0.15,0.02c16.59,2.38,25.78,11.59,28.09,28.17l0.02,0.18l0.09,0.16
		c0.55,1.01,3,2.56,4.37,2.56L383.41,139.68z"/>
	<g>
		<path class="st9" d="M340.97,425.53l23.08,14.38l23.08-14.38c21.94-14.19,35.03-37.45,35.03-62.24v-54.67l-3.95,1.82
			c-0.07,0.03-0.14,0.06-0.22,0.09c-13.69,5.58-29.44,5.69-43.22,0.3c-0.07-0.03-0.13-0.05-0.2-0.08l-10.48-4.6l-9.4,4.31
			c-0.07,0.03-0.14,0.06-0.21,0.09c-13.69,5.56-29.45,5.66-43.22,0.26c-0.07-0.03-0.13-0.05-0.2-0.08l-5.13-2.26v54.82
			C305.94,388.08,319.03,411.34,340.97,425.53z"/>
		<path class="st10" d="M364.04,471.99c-0.49,0-0.97-0.14-1.39-0.4l-33.4-20.81c-31.01-20.04-49.55-53.01-49.55-88.19v-81.12
			c0-0.89,0.45-1.71,1.19-2.2c0.43-0.28,0.92-0.43,1.43-0.43c0.37,0,0.72,0.07,1.06,0.22l16.18,7.11c7.6,2.96,15.65,4.47,23.9,4.47
			c8.53,0,16.79-1.59,24.55-4.72l0.1-0.04l14.84-6.8c0.35-0.16,0.71-0.24,1.09-0.24c0.37,0,0.72,0.07,1.05,0.22l16.27,7.13
			c7.59,2.95,15.61,4.45,23.85,4.45c8.55,0,16.83-1.6,24.61-4.74l0.1-0.04l14.75-6.78c0.35-0.16,0.72-0.24,1.1-0.24
			c0.5,0,0.99,0.14,1.42,0.41c0.76,0.49,1.21,1.31,1.21,2.21v81.12c0,35.18-18.51,68.14-49.51,88.17l-33.44,20.83
			C365.01,471.86,364.53,471.99,364.04,471.99z M287.66,363.03c0,32.23,16.99,62.45,45.45,80.86l30.94,19.27l30.88-19.23
			c28.51-18.44,45.51-48.68,45.51-80.9v-74.39l-10.8,4.96c-8.04,3.27-16.97,5-25.83,5c-8.65,0-17.04-1.56-24.93-4.65l-14.81-6.49
			l-13.35,6.12l-0.15,0.06c-8.09,3.29-16.75,4.96-25.72,4.96c-8.67,0-17.08-1.57-24.99-4.67l-0.13-0.06l-12.07-5.31V363.03z"/>
	</g>
</g>
</svg>
