<?xml version="1.0" encoding="utf-8"?>
<!-- Generator: Adobe Illustrator 24.0.1, SVG Export Plug-In . SVG Version: 6.00 Build 0)  -->
<svg version="1.1" id="Layer_1" xmlns="http://www.w3.org/2000/svg" xmlns:xlink="http://www.w3.org/1999/xlink" x="0px" y="0px"
	 viewBox="0 0 512 512" style="enable-background:new 0 0 512 512;" xml:space="preserve">
<style type="text/css">
	.st0{fill:none;stroke:#000001;stroke-miterlimit:10;}
	.st1{fill:none;stroke:#010102;stroke-miterlimit:10;}
	.st2{fill:#F7F9FB;}
	.st3{fill:#010102;}
	.st4{fill:#FFFFFF;}
	.st5{fill:#474747;}
	.st6{fill-rule:evenodd;clip-rule:evenodd;}
	.st7{fill:#000001;}
	.st8{fill:#010101;}
	.st9{fill:#FD8274;}
	.st10{fill:#1A2DD8;}
	.st11{fill:#FFFFFF;stroke:#1A2DD8;stroke-miterlimit:10;}
	.st12{fill:#FD8274;stroke:#FD8274;stroke-miterlimit:10;}
	.st13{fill:#FD8274;stroke:#000000;stroke-width:8;stroke-linejoin:round;stroke-miterlimit:10;}
	.st14{fill-rule:evenodd;clip-rule:evenodd;fill:#1A2DD8;}
	.st15{fill-rule:evenodd;clip-rule:evenodd;fill:#FD8274;}
	.st16{fill:none;stroke:#000000;stroke-width:8;stroke-miterlimit:10;}
</style>
<g>
	<path class="st6" d="M127.7,416.22c-21.97,0-39.84-17.89-39.84-39.88V101.16c0-5.12,4.68-5.38,5.62-5.38c1.59,0,5.3,0.52,5.3,5.38
		v275.19c0,15.96,12.97,28.94,28.92,28.94h10.44v-59.14c0-7.42,6.27-13.69,13.69-13.69h36.69c7.42,0,13.69,6.27,13.69,13.69v59.14
		h28.88V277.47c0-7.42,6.27-13.69,13.69-13.69h36.69c7.42,0,13.69,6.27,13.69,13.69v127.82h28.88V247.26
		c0-7.42,6.27-13.69,13.69-13.69h36.69c7.42,0,13.69,6.27,13.69,13.69v158.04h30.29c4.18,0,5.73,3.78,5.73,6.17
		c0,0.77-0.15,2.22-1.16,3.27c-1.19,1.23-3.21,1.49-4.69,1.49L127.7,416.22z M335.12,405.29l41.92,0V249.27
		c0-2.56-2.07-4.63-4.63-4.63h-32.66c-2.56,0-4.63,2.07-4.63,4.63V405.29z M242.17,405.29l41.92,0v-125.8
		c0-2.56-2.07-4.63-4.63-4.63H246.8c-2.56,0-4.63,2.07-4.63,4.63V405.29z M149.22,405.29l41.92,0v-57.13c0-2.56-2.07-4.63-4.63-4.63
		h-32.66c-2.56,0-4.63,2.07-4.63,4.63V405.29z"/>
	<g>
		<path class="st14" d="M145.91,210.61l-11.01,8.06c-1.09,0.8-1.94,1.92-2.26,3.23c-0.4,1.62-0.07,3.28,0.9,4.6
			c1.11,1.52,2.87,2.35,4.78,2.24c1.11-0.06,2.17-0.51,3.07-1.17l11.03-8.08c2.37-1.73,2.96-5.01,1.35-7.47l0,0
			C152.05,209.39,148.46,208.74,145.91,210.61z"/>
		<path class="st14" d="M419.15,97.29c-0.12-0.17-0.32-0.38-0.66-0.38c-0.05,0-0.1,0-0.13,0.01l-55.98,7.48
			c-0.31,0.03-0.54,0.21-0.68,0.52c-0.19,0.45,0.02,0.71,0.11,0.83l14.99,19.46l-101.18,75.68c-1.68,1.26-4.03,1.05-5.47-0.47
			l-41.63-44.21c-1.04-1.15-2.53-1.81-4.1-1.81c-1.17,0-2.3,0.37-3.25,1.07l-60.65,44.16c-2.61,1.91-3.02,5.66-0.88,8.09h0
			c1.88,2.14,5.09,2.49,7.39,0.81l53.57-38.97c1.8-1.32,4.3-1.09,5.83,0.54l41.57,44.14c1.29,1.37,3.15,1.99,5.09,1.63
			c0.93-0.17,1.78-0.62,2.51-1.23l0.07-0.06l107.83-80.65l12.77,16.57c0.07,0.09,0.24,0.31,0.65,0.31c0.38,0,0.65-0.17,0.79-0.52
			l21.5-52.21C419.27,97.98,419.4,97.68,419.15,97.29z"/>
	</g>
	<path class="st15" d="M193.11,406.12l-44.47,0v-62.46h44.47V406.12z M284.68,405.1l-43.06,0V274.21h43.06V405.1z M379.32,405.44
		l-44.72,0V244.26h44.72V405.44z"/>
</g>
</svg>
