<?xml version="1.0" encoding="utf-8"?>
<!-- Generator: Adobe Illustrator 24.0.1, SVG Export Plug-In . SVG Version: 6.00 Build 0)  -->
<svg version="1.1" id="Layer_1" xmlns="http://www.w3.org/2000/svg" xmlns:xlink="http://www.w3.org/1999/xlink" x="0px" y="0px"
	 viewBox="0 0 512 512" style="enable-background:new 0 0 512 512;" xml:space="preserve">
<style type="text/css">
	.st0{fill:none;stroke:#000001;stroke-miterlimit:10;}
	.st1{fill:none;stroke:#010102;stroke-miterlimit:10;}
	.st2{fill:#F7F9FB;}
	.st3{fill:#010102;}
	.st4{fill:#FFFFFF;}
	.st5{fill:#474747;}
	.st6{fill-rule:evenodd;clip-rule:evenodd;}
	.st7{fill:#000001;}
	.st8{fill:#010101;}
	.st9{fill:#FD8274;}
	.st10{fill:#1A2DD8;}
	.st11{fill:#FFFFFF;stroke:#1A2DD8;stroke-miterlimit:10;}
	.st12{fill:#FD8274;stroke:#FD8274;stroke-miterlimit:10;}
	.st13{fill:#FD8274;stroke:#000000;stroke-width:8;stroke-linejoin:round;stroke-miterlimit:10;}
	.st14{fill-rule:evenodd;clip-rule:evenodd;fill:#1A2DD8;}
	.st15{fill-rule:evenodd;clip-rule:evenodd;fill:#FD8274;}
	.st16{fill:none;stroke:#000000;stroke-width:8;stroke-miterlimit:10;}
</style>
<path d="M398.38,149.17c-1.31-1.02-6.47-0.75-10.81,5.31c-12.07,15.22-24.13,30.44-36.18,45.67
	c-41.62,52.57-83.23,105.13-124.86,157.69c-4.91,6.19-8.58,12.85-8.43,21.05c0,15.23,11.1,27.86,26.18,29.42
	c13.84,1.43,23.94-4.65,30.38-16.61c41.68-77.39,82.29-155.8,123.9-233.23C400.99,153.09,400.06,150.47,398.38,149.17z
	 M266.81,386.89c-6.64,10.55-12.56,13.92-22.99,12.79c-15.6-1.69-22.57-19.16-12.7-32.16c10.07-13.28,20.6-26.21,30.95-39.27
	c31.92-40.28,129.38-169.72,129.84-169.44C392.32,158.81,308.42,311.53,266.81,386.89z M60.15,235.85c-0.64,0-0.87-0.13-0.88-0.14
	c-0.87-0.54-1.87-3.75-1.47-4.71c3.32-7.9,7.12-15.55,11.29-22.74c19.67-33.9,47.49-60.55,82.69-79.21c1.92-1.02,3.7-1.58,5.01-1.58
	c0.24,0,0.47,0.02,0.67,0.06c0.66,0.13,2.03,0.82,2.48,2.38c0.23,1.84-0.02,2.95-3.27,5.33c-5.01,3.67-10.37,7.05-15.47,10.43
	c-7.21,4.77-14.88,9.43-21.76,14.94c-24.11,19.31-51.94,60.93-51.94,60.93c22.21-37.02,66.93-56.2,79.18-60.7
	c21.54-7.91,43.24-11.92,64.49-11.92c26.06,0,52.17,6.03,77.62,17.93c15.83,7.4,30.85,17.43,44.67,29.83
	c0.38,0.34,0.8,0.68,1.23,1.02c0.69,0.55,1.85,1.47,1.95,1.92l0.05,0.25l0.11,0.23c0.94,1.89,0.79,3.47-0.51,5.12
	c-0.14,0.11-1,0.45-2.45,0.45c-0.75,0-1.47-0.09-1.98-0.26c-1.17-0.37-2.34-1.48-3.57-2.64c-0.55-0.52-1.09-1.03-1.65-1.5
	c-35.03-29.43-73.35-44.36-113.91-44.36c-19.96,0-40.81,3.63-61.99,10.78c-31.89,10.77-59.09,30.9-80.85,59.82
	c-0.64,0.85-1.21,1.75-1.77,2.61c-1.11,1.73-2.17,3.37-3.52,4.35C63.49,235.23,61.54,235.85,60.15,235.85z M392,316
	c-5.34,0-7.27-1.72-7.94-7.1c-2.5-20.23-8.75-39.82-18.57-58.23l-0.09-0.17c-0.45-0.84-0.88-1.64-1.2-2.45
	c-1.59-3.91-0.25-5.19,1.43-5.99c0.71-0.33,1.37-0.5,1.98-0.5c1.97,0,3.07,1.84,3.55,2.93c0.93,2.13,1.88,4.26,2.82,6.39
	c3.96,8.93,8.05,18.17,11.32,27.47c2.14,6.09,3.54,12.35,5.03,18.98c0.65,2.91,1.33,5.92,2.07,8.91l0.38,1.52h54.34l-0.32-2.28
	c-0.54-3.8-1.02-7.63-1.48-11.33c-1.04-8.33-2.02-16.19-3.68-24.12c-6.51-31.05-20.16-59.33-40.56-84.04l-0.17-0.21
	c-0.74-0.9-1.67-2.01-1.93-2.74c-1.01-2.8-0.8-4.11,0.97-6.1c0.24-0.27,0.76-0.31,1.05-0.31c1.36,0,2.92,0.77,3.4,1.3
	c5.46,6.08,10.44,12.48,14.8,19.01c22.27,33.33,34.06,70.6,35.05,110.79c0.1,4.02-0.21,6.02-1.08,6.91
	c-0.87,0.89-2.9,1.27-7.01,1.28c-2.41,0.01-4.82,0.01-7.23,0.01c-4.66,0-9.32-0.01-13.98-0.02c-4.66-0.01-9.33-0.02-13.99-0.02
	c-7.23,0-13.17,0.03-18.7,0.09L392,316z M367.79,151.86c-1.42,0-3.06-0.48-4.62-1.36c-3.73-2.1-7.49-4.34-11.14-6.5
	c-9.3-5.52-18.92-11.22-29.03-15.44c-24.41-10.18-49.61-15.35-74.91-15.35c-21.59,0-43.74,3.76-65.84,11.18
	c-0.64,0.21-1.3,0.46-1.97,0.71c-1.79,0.67-3.63,1.37-5.09,1.37c-1.11,0-2.49,0.17-3.36-2.39c-0.43-1.26-0.24-2.76,0.11-3.46
	c0.7-1.39,3.18-2.19,5.37-2.89c0.73-0.24,1.45-0.47,2.11-0.71c19.28-7.23,44.42-11.54,67.24-11.54l0.78,0
	c43.8,0.17,84.05,13.01,119.63,38.17c2.8,2.05,3.71,4.07,3.75,5.68c0.02,0.76-0.17,1.32-0.57,1.73
	C369.75,151.58,368.88,151.86,367.79,151.86z"/>
</svg>
