<?xml version="1.0" encoding="utf-8"?>
<!-- Generator: Adobe Illustrator 24.0.1, SVG Export Plug-In . SVG Version: 6.00 Build 0)  -->
<svg version="1.1" id="Layer_1" xmlns="http://www.w3.org/2000/svg" xmlns:xlink="http://www.w3.org/1999/xlink" x="0px" y="0px"
	 viewBox="0 0 512 512" style="enable-background:new 0 0 512 512;" xml:space="preserve">
<style type="text/css">
	.st0{fill:none;stroke:#000001;stroke-miterlimit:10;}
	.st1{fill:none;stroke:#010102;stroke-miterlimit:10;}
	.st2{fill:#F7F9FB;}
	.st3{fill:#010102;}
	.st4{fill:#FFFFFF;}
	.st5{fill:#474747;}
	.st6{fill-rule:evenodd;clip-rule:evenodd;}
	.st7{fill:#000001;}
	.st8{fill:#010101;}
	.st9{fill:#FD8274;}
	.st10{fill:#1A2DD8;}
	.st11{fill:#FFFFFF;stroke:#1A2DD8;stroke-miterlimit:10;}
	.st12{fill:#FD8274;stroke:#FD8274;stroke-miterlimit:10;}
	.st13{fill:#FD8274;stroke:#000000;stroke-width:8;stroke-linejoin:round;stroke-miterlimit:10;}
	.st14{fill-rule:evenodd;clip-rule:evenodd;fill:#1A2DD8;}
	.st15{fill-rule:evenodd;clip-rule:evenodd;fill:#FD8274;}
	.st16{fill:none;stroke:#000000;stroke-width:8;stroke-miterlimit:10;}
</style>
<path d="M179,236.38H93c-2.76,0-5-2.24-5-5l0,0c0-2.76,2.24-5,5-5h86c2.76,0,5,2.24,5,5l0,0C184,234.14,181.76,236.38,179,236.38z
	 M184,336.38L184,336.38c0-2.76-2.24-5-5-5H93c-2.76,0-5,2.24-5,5l0,0c0,2.76,2.24,5,5,5h86C181.76,341.38,184,339.14,184,336.38z
	 M185,283.88L185,283.88c0-2.76-2.24-5-5-5H63c-2.76,0-5,2.24-5,5l0,0c0,2.76,2.24,5,5,5h117C182.76,288.88,185,286.64,185,283.88z
	 M454,274c0,93.68-75.94,169.63-169.63,169.63c-58.75,0-110.52-29.87-140.96-75.25h14.11c28.82,38.68,74.91,63.73,126.86,63.73
	c87.32,0,158.1-70.79,158.1-158.1s-70.79-158.1-158.1-158.1c-61.93,0-115.54,35.62-141.48,87.48h-12.78
	c20.12-43.86,58.39-77.66,105.2-91.78c-1.43-2.75-2.25-5.86-2.25-9.17V90.33c0-11.02,8.94-21.96,19.96-21.96h55.08
	c11.02,0,19.96,10.94,19.96,21.96v12.08c0,2.57-0.5,5.02-1.4,7.27C399.88,128.48,454,194.92,454,274z M318.19,95.2
	c0-9.17-7.44-16.61-16.61-16.61h-42.03c-9.17,0-16.61,7.44-16.61,16.61v10.57c0,1.25,0.16,2.45,0.42,3.61
	c13.13-3.26,26.87-5,41.01-5c11.53,0,22.79,1.16,33.68,3.35c0.08-0.64,0.13-1.29,0.13-1.96V95.2z M346.43,213.98l-44.85,44.85
	l1.81,2.73c7.44,11.24,5.92,26.32-3.63,35.87c-5.38,5.38-12.54,8.35-20.15,8.35c-7.61,0-14.77-2.96-20.15-8.35
	c-11.11-11.11-11.11-29.19,0-40.3c5.38-5.38,12.54-8.35,20.15-8.35c3.75,0,7.41,0.72,10.86,2.14l2.47,1.01l45.72-45.72
	c1.04-1.04,2.42-1.61,3.89-1.61c1.47,0,2.85,0.57,3.89,1.61C348.57,208.35,348.57,211.84,346.43,213.98z M300,276.88
	c0-11.32-9.18-20.5-20.5-20.5s-20.5,9.18-20.5,20.5s9.18,20.5,20.5,20.5S300,288.2,300,276.88z"/>
</svg>
