<?xml version="1.0" encoding="utf-8"?>
<!-- Generator: Adobe Illustrator 24.0.1, SVG Export Plug-In . SVG Version: 6.00 Build 0)  -->
<svg version="1.1" id="Layer_1" xmlns="http://www.w3.org/2000/svg" xmlns:xlink="http://www.w3.org/1999/xlink" x="0px" y="0px"
	 viewBox="0 0 512 512" style="enable-background:new 0 0 512 512;" xml:space="preserve">
<style type="text/css">
	.st0{fill:none;stroke:#000001;stroke-miterlimit:10;}
	.st1{fill:none;stroke:#010102;stroke-miterlimit:10;}
	.st2{fill:#F7F9FB;}
	.st3{fill:#010102;}
	.st4{fill:#FFFFFF;}
	.st5{fill:#474747;}
	.st6{fill-rule:evenodd;clip-rule:evenodd;}
	.st7{fill:#000001;}
	.st8{fill:#010101;}
	.st9{fill:#FD8274;}
	.st10{fill:#1A2DD8;}
	.st11{fill:#FFFFFF;stroke:#1A2DD8;stroke-miterlimit:10;}
	.st12{fill:#FD8274;stroke:#FD8274;stroke-miterlimit:10;}
	.st13{fill:#FD8274;stroke:#000000;stroke-width:8;stroke-linejoin:round;stroke-miterlimit:10;}
	.st14{fill-rule:evenodd;clip-rule:evenodd;fill:#1A2DD8;}
	.st15{fill-rule:evenodd;clip-rule:evenodd;fill:#FD8274;}
	.st16{fill:none;stroke:#000000;stroke-width:8;stroke-miterlimit:10;}
</style>
<path d="M256,24.63c-94.17,0-170.79,76.62-170.79,170.8c0,2.06,1.68,3.74,3.74,3.74s3.74-1.68,3.74-3.74
	c0-17.33,23.79-31.96,51.94-31.96c26.02,0,48.3,12.5,51.53,28.07c0.12,0.6,0.22,1.2,0.29,1.81c0,0.05,0.01,0.1,0.02,0.15
	c0.05,1.12,0.09,1.87,0.12,2.17c0.01,0.16,0.03,0.31,0.06,0.46c0.01,0.06,0.02,0.11,0.04,0.16c0.03,0.15,0.08,0.3,0.13,0.44
	c0.04,0.1,0.09,0.21,0.13,0.31c0.03,0.05,0.06,0.11,0.09,0.16c0.06,0.11,0.12,0.23,0.19,0.33c0.01,0.02,0.03,0.04,0.04,0.06
	c0.03,0.04,0.07,0.08,0.1,0.13c0.04,0.05,0.09,0.1,0.14,0.15c0.07,0.08,0.14,0.17,0.22,0.25c0.02,0.02,0.04,0.04,0.06,0.06
	c0.07,0.07,0.16,0.12,0.23,0.18c0.1,0.07,0.18,0.15,0.28,0.21c0.03,0.02,0.06,0.03,0.09,0.05c0.08,0.05,0.17,0.09,0.26,0.14
	c0.08,0.04,0.16,0.09,0.25,0.12c0.01,0.01,0.03,0.02,0.04,0.02c0.15,0.06,0.3,0.1,0.46,0.14c0.08,0.02,0.16,0.04,0.24,0.06
	c0.02,0,0.03,0,0.04,0.01c0.2,0.03,0.41,0.05,0.62,0.06h0.02c0.08,0,0.15-0.01,0.24-0.01c0.09-0.01,0.17-0.03,0.25-0.04
	c0.13-0.02,0.25-0.03,0.37-0.06s0.24-0.07,0.36-0.12c0.11-0.03,0.22-0.07,0.32-0.12c0.12-0.05,0.24-0.12,0.35-0.19
	c0.13-0.07,0.25-0.16,0.37-0.25c0.07-0.05,0.14-0.11,0.2-0.16c0.09-0.08,0.17-0.15,0.25-0.24c0.03-0.03,0.07-0.05,0.1-0.09
	c0.05-0.06,0.09-0.13,0.14-0.2c0.07-0.09,0.14-0.18,0.21-0.28c0.05-0.08,0.09-0.16,0.13-0.25c0.21-0.4,0.35-0.85,0.41-1.33
	c0-0.06,0.01-0.11,0.01-0.16c0.01-0.08,0.03-0.16,0.03-0.24c0-3.79,1.13-7.45,3.21-10.86c7.4-12.17,26.73-21.1,48.73-21.1
	c28.16,0,51.95,14.63,51.95,31.96c0,0.85,0.3,1.63,0.78,2.27c0.05,0.06,0.09,0.13,0.15,0.19c0.02,0.04,0.06,0.06,0.09,0.09
	c0.08,0.09,0.16,0.16,0.25,0.24c0.04,0.03,0.09,0.07,0.13,0.1c0.38,0.31,0.82,0.54,1.3,0.68c0.06,0.02,0.11,0.04,0.17,0.06
	c0.13,0.03,0.25,0.04,0.38,0.06c0.09,0.01,0.17,0.03,0.25,0.04c0.08,0,0.16,0.01,0.23,0.01c0,0,0,0,0.01,0
	c0.25,0,0.5-0.03,0.74-0.08c0.13-0.02,0.25-0.07,0.37-0.11c0.11-0.03,0.21-0.06,0.31-0.1c0.09-0.03,0.17-0.08,0.25-0.13
	c0.13-0.06,0.26-0.12,0.38-0.2c0.08-0.06,0.16-0.13,0.25-0.2c0.1-0.08,0.2-0.15,0.29-0.24c0.08-0.08,0.15-0.17,0.23-0.25
	c0,0,0,0,0-0.01c0.08-0.09,0.16-0.17,0.22-0.27c0.01,0,0.01,0,0.01,0c0.06-0.1,0.12-0.2,0.18-0.3c0-0.01,0-0.01,0-0.01
	c0.05-0.08,0.09-0.16,0.14-0.25c0.06-0.13,0.11-0.26,0.15-0.4c0.04-0.11,0.08-0.22,0.11-0.33c0.03-0.12,0.04-0.25,0.06-0.37
	c0.01-0.09,0.03-0.16,0.04-0.25c0.02-0.3,0.06-1.01,0.11-2.09c0.14-1.32,0.4-2.62,0.79-3.89c2.27-7.35,8.79-13.91,17.86-18.62
	c9.07-4.72,20.7-7.6,33.19-7.6c28.16,0,51.94,14.63,51.94,31.96c0,2.06,1.68,3.74,3.74,3.74c2.07,0,3.75-1.68,3.75-3.74
	C426.8,101.25,350.18,24.63,256,24.63z M196.29,175.65c-0.01-0.01-0.01-0.01-0.01-0.02c-0.01,0-0.01,0-0.01,0
	c-5.22-6.11-12.67-11.03-21.55-14.42c-8.87-3.39-19.17-5.26-30.09-5.26c-18.2,0-35.06,5.27-46.28,14.46L93.98,174l0.93-5.58
	C107.52,92.89,169.99,37.17,245.5,32.41C203.82,71.89,196.98,141.45,196.29,175.65z M306.12,172.95c-0.04-0.04-0.07-0.08-0.1-0.11
	c-0.68-0.7-1.38-1.38-2.11-2.04c-0.07-0.06-0.13-0.11-0.19-0.17c-0.72-0.65-1.47-1.28-2.25-1.89c-0.08-0.06-0.15-0.12-0.23-0.18
	c-0.78-0.6-1.58-1.19-2.41-1.76c-0.09-0.06-0.17-0.12-0.26-0.17c-0.83-0.57-1.69-1.12-2.58-1.65c-0.08-0.05-0.16-0.1-0.24-0.14
	c-0.9-0.54-1.82-1.05-2.77-1.55c-0.06-0.03-0.12-0.06-0.18-0.09c-0.98-0.51-1.99-1-3.01-1.46c-0.01-0.01-0.03-0.01-0.04-0.01
	c-1.06-0.48-2.14-0.94-3.25-1.37c0,0-0.01-0.01-0.02-0.01c-1.06-0.41-2.15-0.8-3.26-1.17c-0.08-0.03-0.16-0.06-0.24-0.08
	c-1.06-0.35-2.14-0.68-3.24-0.99c-0.13-0.04-0.26-0.08-0.4-0.11c-1.07-0.3-2.15-0.57-3.25-0.82c-0.16-0.04-0.32-0.08-0.49-0.11
	c-1.09-0.25-2.19-0.47-3.31-0.68c-0.17-0.03-0.35-0.06-0.53-0.09c-1.11-0.2-2.25-0.37-3.39-0.53c-0.17-0.02-0.34-0.04-0.52-0.07
	c-1.16-0.15-2.33-0.28-3.51-0.38c-0.15-0.02-0.3-0.03-0.45-0.04c-1.22-0.1-2.44-0.18-3.68-0.24c-0.1,0-0.2-0.01-0.3-0.01
	c-1.29-0.05-2.59-0.08-3.9-0.08c0,0,0,0-0.01,0h-0.01c-1.31,0-2.61,0.03-3.91,0.08c-0.1,0.01-0.2,0.01-0.3,0.01
	c-1.23,0.06-2.46,0.14-3.68,0.24c-0.15,0.02-0.3,0.03-0.44,0.04c-1.19,0.1-2.36,0.24-3.53,0.39c-0.17,0.02-0.34,0.04-0.5,0.06
	c-1.15,0.16-2.29,0.33-3.41,0.53c-0.17,0.03-0.35,0.06-0.52,0.09c-1.12,0.21-2.23,0.43-3.32,0.68c-0.16,0.04-0.32,0.07-0.47,0.11
	c-1.11,0.25-2.2,0.53-3.28,0.82c-0.12,0.04-0.25,0.08-0.38,0.11c-1.1,0.31-2.18,0.64-3.25,0.99c-0.08,0.03-0.15,0.06-0.23,0.08
	c-1.11,0.38-2.21,0.77-3.28,1.18c0,0,0,0.01-0.01,0.01c-2.21,0.86-4.33,1.82-6.34,2.86c-0.04,0.02-0.08,0.04-0.12,0.06
	c-0.97,0.51-1.91,1.04-2.83,1.58c-0.06,0.04-0.13,0.08-0.19,0.12c-0.9,0.53-1.77,1.09-2.62,1.67c-0.07,0.05-0.15,0.1-0.22,0.15
	c-0.84,0.57-1.65,1.17-2.44,1.78c-0.07,0.06-0.13,0.11-0.2,0.16c-0.79,0.62-1.55,1.26-2.28,1.92c-0.05,0.04-0.1,0.09-0.16,0.14
	c-0.74,0.67-1.45,1.36-2.13,2.06c-0.03,0.03-0.05,0.06-0.08,0.09c-0.7,0.73-1.37,1.48-1.99,2.24c0.01-0.33,0.02-0.69,0.03-1.04
	c-0.01,0.01-0.02,0.03-0.03,0.04c0.83-34.42,8.05-106.98,52.13-143.08c43.92,36,51.22,108.59,52.1,143.04
	c-0.01-0.01-0.02-0.02-0.03-0.03c0.01,0.34,0.02,0.7,0.03,1.04C307.47,174.41,306.81,173.67,306.12,172.95z M413.65,170.45
	c-11.21-9.19-28.08-14.46-46.28-14.46c-21.85,0-41.21,7.47-51.66,19.7c-0.68-34.2-7.52-103.76-49.2-143.24
	c75.5,4.76,137.97,60.48,150.58,136.01l0.93,5.58L413.65,170.45z M392.67,464.58c-2.77-24.27-5.64-49.78-8.52-75.81
	c-1.99-17.96-8.26-25.28-25.81-30.1c-0.85-0.23-1.71-0.44-2.56-0.66l-1.17-0.29l-18.94-4.77l0.24-2.82l0.86-0.05
	c0.46-0.03,0.92-0.06,1.38-0.09c1.01-0.07,2.06-0.15,3.1-0.16c1.06-0.01,2.11-0.01,3.17-0.01l6.66,0.01c2.56,0,5.59-0.01,8.68-0.12
	c5.25-0.17,8.98-3.47,9.29-8.21c0.94-14.5,1.75-29.25,2.52-43.52c0.28-5.14,0.56-10.29,0.85-15.43c0.06-1.05-0.03-2.49-0.81-3.34
	c-0.46-0.51-1.13-0.77-2.04-0.8l-0.17,0c-0.77,0-2.81,0-2.98,3.97c-0.19,4.52-0.43,9.04-0.65,12.93l-0.48,8.83
	c-0.6,10.94-1.21,22.25-1.99,33.36c-0.12,1.72-1.64,5.85-3.59,5.96c-4.41,0.25-8.77,0.28-12.08,0.28c-1.82,0-3.65-0.01-5.49-0.02
	c-1.84-0.01-3.69-0.02-5.55-0.02h-1.28l0.31-1.24c0.08-0.31,0.12-0.51,0.15-0.66c0.06-0.3,0.12-0.55,0.33-0.8l0.16-0.19
	c0.24-0.3,0.54-0.66,0.96-0.92c15.94-9.61,23.27-24.07,22.41-44.21c-0.39-9.04-1.45-10.15-10.39-10.88
	c-18.32-1.49-33.6-9.06-45.43-22.48c-1.71-1.94-3.29-2.85-4.96-2.85c-1.5,0-3.17,0.71-5.26,2.24c-5.41,3.96-10.76,7.12-15.91,9.38
	c-4.4,1.93-6.02,4.08-5.98,7.94c0.03,2.95,0.01,5.89,0,8.84c-0.02,5.01-0.05,10.19,0.15,15.27c0.57,15,7.5,27.03,20.6,35.76
	c0.69,0.46,1.33,0.98,1.95,1.48c0.28,0.23,0.56,0.45,0.84,0.67l1.92,1.5l-2.42,0.28c-5.27,0.61-10.52,0.91-16.05,0.91
	c-2.31,0-4.72-0.05-7.16-0.16c-1.69-0.07-3.57-3.02-3.75-4.75c-0.61-5.84-1.03-12.15-1.33-19.84c-0.17-4.39-0.37-8.78-0.56-13.17
	c-0.58-12.91-1.17-26.25-1.07-39.38c0.1-12.28,4-20.99,11.6-25.9c5.24-3.39,9.86-7.14,14.75-11.11l1.67-1.35
	c6.28-5.09,13.9-7.67,22.66-7.67c3.94,0,8.22,0.52,12.71,1.56c6.53,1.5,12.3,4.07,17.31,7.69c0,0,12.38,8.91,19.15,28.53
	c0.48,1.38,0.64,1.95,0.64,1.95c0.46,1.65,0.37,1.96,0.77,2.71c0.27,0.51,0.78,1.47,1.88,1.85c0.8,0.28,1.92,0.25,2.69-0.41
	c0.74-0.64,0.84-1.58,0.92-2.42c0.09-0.93-0.06-1.86-0.19-2.48c-0.06-0.25-0.11-0.49-0.16-0.73c-4.49-22.82-25.16-41.65-48.08-43.81
	c-2.32-0.22-4.58-0.33-6.73-0.33c-14.44,0-25.55,4.89-33.98,14.96c-0.8,0.96-1.82,1.71-2.78,2.07
	c-9.14,3.37-15.03,10.26-18.54,21.69c-2.81,9.14-3.73,19.33-2.91,32.07c0.9,13.89,1.76,27.78,2.63,41.83l1.18,19.02l-5.89,0
	c-8.65,0-16.17,2.54-22.37,7.54c-1.83,1.48-3.51,2.17-5.28,2.17c-1.28,0-2.6-0.38-4.03-1.15c-1.4-0.76-2.94-1.49-4.58-2.19
	c-1.8-0.76-4.51-1.91-4.26-5.58c0.03-0.38,0.04-0.75,0.06-1.11c0.1-2.45,0.2-4.98,3.5-6.95c11.93-7.11,18.84-18.07,20.54-32.59
	c0.4-3.4,1.33-5.67,4.93-7.21c6.45-2.77,9.53-9.25,7.5-15.74c-1.02-3.26-1.43-6.76-1.74-9.78c-0.2-1.99-0.28-4-0.35-5.95
	c-0.07-2-0.15-4.07-0.36-6.07c-2.23-20.75-18.24-39.23-38.93-44.95c-4.69-1.3-9.56-1.95-14.47-1.95c-16.82,0-32.71,7.63-42.48,20.4
	c-7.98,10.43-11.86,21.89-11.85,35.03c0,0.68,0.02,1.38,0.03,2.08c0.07,3.22,0.15,6.55-1.14,9.32c-1.53,3.31-1.66,6.97-0.35,10.31
	c1.34,3.42,4.04,6.1,7.59,7.56c2.92,1.2,4.13,2.86,4.47,6.13c1.54,14.77,8.5,26.02,20.69,33.45c3.2,1.95,4.37,4.74,3.46,8.28
	c-0.49,1.9-2.25,4.4-4.24,5.13c-5.18,1.89-10.52,3.59-15.68,5.23c-2.8,0.89-5.6,1.78-8.39,2.71c-12.11,4.01-18.66,11.88-20.04,24.05
	c-0.85,7.54-1.71,15.08-2.57,22.62c-1.6,14.06-3.25,28.6-4.83,42.9c-0.16,1.42-0.32,2.85-0.49,4.27c-0.67,5.74-1.37,11.67-1.4,17.48
	c-0.05,9.18,7.19,16.57,16.49,16.82c4.56,0.12,9.44,0.18,15.81,0.18c2.67,0,5.34-0.01,8.01-0.02c2.67-0.01,5.34-0.02,8.02-0.02
	c1.31,0,2.61,0,3.96,0.01c3.15,0,3.64-1.67,3.73-2.92c0.07-0.9-0.11-1.58-0.56-2.08c-0.7-0.78-1.95-1-2.87-1.04
	c-1.74-0.08-3.79-0.15-5.82-0.15c-1.44,0-2.74,0.04-3.98,0.11c-0.31,0.02-0.61,0.03-0.89,0.03c-1.08,0-2.63-0.13-3.65-1.22
	c-0.87-0.93-1.19-2.31-1.04-4.47c0.76-11.13,1.34-22.47,1.91-33.43c0.2-3.92,0.41-7.84,0.62-11.75c0.36-6.74,0.71-13.49,1.06-20.23
	c0.03-0.64,0.05-1.29,0.07-1.93c0.02-0.8,0.05-1.59,0.1-2.39c0.11-1.75-0.16-2.99-0.81-3.71c-0.46-0.52-1.15-0.79-2.11-0.83l-0.2,0
	c-0.75,0-2.73,0-2.98,4l-0.97,15.52l-1.03-0.1c-1.74-0.16-3.43-0.34-5.09-0.51c-3.85-0.4-7.48-0.78-11.14-0.95
	c-1.23-0.06-2.99-0.27-4.01-1.49c-1.02-1.21-0.93-2.95-0.78-4.15c0.72-5.75,1.37-11.61,2.01-17.28c0.47-4.23,0.95-8.46,1.45-12.69
	c1.1-9.24,6.14-15.47,15-18.52c4.33-1.49,8.99-2.72,13.86-3.66c0.18-0.04,0.38-0.05,0.58-0.05c1.63,0,3.59,1.16,4.55,2.27
	c1.93,2.25,3.76,4.63,5.54,6.93c1.51,1.95,3.07,3.98,4.67,5.9c1.8,2.16,3.65,3.21,5.65,3.21c1.46,0,3.08-0.57,4.81-1.7
	c0.48-0.31,0.97-0.56,1.58-0.87c0.32-0.16,0.68-0.34,1.1-0.56l1.47-0.77v1.66c0,1.77-0.02,3.5-0.04,5.21
	c-0.05,4.46-0.1,8.67,0.22,12.85c0.05,0.62,1.12,1.53,1.98,2.26c0.26,0.22,0.53,0.45,0.79,0.68c0.19-0.19,0.38-0.37,0.58-0.56
	c0.96-0.92,1.86-1.78,2.35-2.78c0.32-0.65,0.23-1.7,0.15-2.71c-0.04-0.52-0.08-1.04-0.08-1.54c0-2.99,0-5.97,0-9.35l0-6.57
	l1.63,1.34c2.62,2.16,4.92,3.2,7.02,3.2c3.9,0,6.88-3.69,10.38-8.5l2.13-2.94l-0.32,3.61c-0.12,1.33-0.22,2.51-0.31,3.6
	c-0.19,2.25-0.33,4.04-0.56,5.85c-0.08,0.64-0.13,1.3-0.18,1.97c-0.15,2.01-0.3,4.09-1.28,5.79c-2.15,3.7-2.8,7.28-1.87,10.34
	c0.92,3.03,3.41,5.62,7.19,7.47c1.4,0.69,3.16,2.24,3.72,4.02c2.33,7.51,6.47,13.3,12.66,17.7c1.52,1.08,2.68,3.64,2.48,5.47
	c-0.23,2.14-4.34,3.46-4.38,3.48c-2.15,0.68-4.35,1.25-6.49,1.81c-2.77,0.72-5.64,1.47-8.36,2.44c-7.17,2.56-11.3,7.75-12.28,15.44
	l-0.24,1.91c-0.74,5.81-1.51,11.82-2.09,17.74c-0.31,3.09-1.79,4.53-4.66,4.53c-0.16,0-0.32,0-0.49-0.01
	c-1.16-0.06-2.41-0.08-3.84-0.08c-1.49,0-2.97,0.03-4.46,0.06l-1.98,0.04c-1.81,0.03-3.05,0.39-3.68,1.06
	c-0.45,0.48-0.64,1.18-0.58,2.12c0.04,0.72,0.17,2.9,3.85,2.9c0.12,0,0.23,0,0.35-0.01c0.93-0.03,1.87-0.04,2.8-0.04
	c0.76,0,1.53,0.01,2.29,0.01c0.76,0.01,1.52,0.01,2.27,0.01l53.09,0c21.26,0,42.51,0,63.79,0.02c3.64,0,4.81-0.74,4.83-3.05
	c0.01-0.95-0.21-1.63-0.66-2.09c-0.85-0.86-2.6-0.99-4.2-0.99c-0.72,0-1.43-0.02-2.15-0.03c-0.85-0.02-1.7-0.03-2.54-0.03
	c-1.15,0-2.1,0.03-2.98,0.09c-0.23,0.02-0.44,0.02-0.65,0.02c-3.65,0-4.33-2.59-4.53-4.54c-0.79-7.86-1.55-14.23-2.37-20.07
	c-1.13-7.98-5.88-13.31-14.13-15.85c-2.12-0.65-4.34-1.19-6.48-1.71c-2.11-0.51-4.3-1.04-6.42-1.69c-0.04-0.01-4.44-1.48-4.39-3.56
	c0.05-2.06,1.22-4.48,2.72-5.63c6.19-4.71,10.02-10.05,11.73-16.3c0.77-2.83,2.29-4.55,5.08-5.74c4.42-1.88,6.76-5.32,6.95-10.22
	c0.05-1.22-0.15-2.49-0.3-3.42c-0.06-0.36-0.11-0.68-0.13-0.92l-0.07-0.63l0.54-0.33c1.71-1.05,3.37-2.05,5-3.02
	c3.92-2.36,7.63-4.58,11.19-7c1-0.68,1.88-1,2.76-1c1.21,0,2.23,0.62,3.26,1.32c0.6,0.41,1.2,0.82,1.8,1.23
	c3,2.07,6.1,4.2,9.38,5.65c3.15,1.39,6.12,2.09,8.83,2.09c6.95,0,11.92-4.54,14.38-13.13c0.76-2.66,1.26-5.48,1.74-8.2
	c0.23-1.28,0.45-2.57,0.71-3.84l0.17-0.87l0.89,0.07c10.07,0.82,18.41,7.47,19.85,15.81c1.69,9.83,2.73,19.93,3.74,29.69
	c0.19,1.81,0.37,3.62,0.56,5.43c0.16,1.47-1.74,3.83-3.28,4.07c-3.03,0.47-6.13,0.75-9.13,1.02c-1.83,0.17-3.66,0.33-5.48,0.54
	c-0.29,0.03-0.56,0.05-0.8,0.05c-3.5,0-3.56-3.22-3.58-4.27c-0.06-3.33-0.21-6.98-0.46-11.15c-0.15-2.52-1.17-3.8-3.02-3.8
	c-0.11,0-0.22,0-0.34,0.01c-1.38,0.1-2.95,0.68-2.82,4.29l0.01,0.38c0.01,0.3,0.02,0.6,0.03,0.89l0.83,14.91
	c0.63,11.25,1.26,22.49,1.87,33.74c0.3,5.47,0.55,10.94,0.82,16.6c0.12,2.61,0.43,9.03,0.43,9.03l-10.3-0.01
	c-2.07,0-4.12,0-6.16,0.02c-2.06,0.02-3.39,0.37-4.07,1.09c-0.46,0.49-0.67,1.2-0.62,2.17c0.07,1.52,0.67,2.92,4.65,2.92
	c6.25-0.04,12.5-0.04,18.75-0.04c5.54,0,11.07,0,16.6-0.03c1.8-0.01,3.43-0.2,4.86-0.58C389.45,485.32,394.09,477.04,392.67,464.58z
	 M133.67,426.26c0.58,0,1.24,0.06,2,0.2c2.75,0.47,5.48,0.78,8.02,1.03c0.89,0.09,1.79,0.18,2.7,0.26c1.68,0.16,3.4,0.33,5.17,0.52
	l0.94,0.1l-1.57,32.8c-0.09,1.88-0.2,3.76-0.31,5.65l-0.16,2.74c-0.08,1.44-0.15,2.88-0.22,4.32c-0.06,1.34-0.11,2.69-0.14,4.03
	c-0.01,0.35-0.03,0.68-0.07,0.99c-0.29,2.39-1.62,3.55-4.06,3.55c-0.15,0-0.3,0-0.45-0.01c-0.77-0.04-1.55-0.06-2.32-0.06l-0.97,0
	l-1.91,0c-1.37,0-2.83-0.02-4.29-0.13c-0.5-0.04-1-0.1-1.59-0.2c-0.56-0.1-1.1-0.22-1.61-0.37c-0.23-0.07-0.46-0.14-0.68-0.22
	c-0.4-0.14-0.79-0.3-1.17-0.49c-0.35-0.17-0.69-0.35-1.01-0.55c-1.64-1.02-2.87-2.43-3.66-4.18c-0.15-0.33-0.28-0.66-0.39-1.01
	c-0.46-1.39-0.68-2.97-0.65-4.69c0.08-4.9,0.6-9.85,1.11-14.64l0.31-3.01c0.18-1.79,0.38-3.58,0.59-5.36l0.38-3.22
	c0.5-4.19,1.02-8.51,1.36-12.77c0.08-0.99,0.23-1.81,0.48-2.49C130.17,427.16,131.53,426.26,133.67,426.26z M293.86,332.53
	c-0.61-0.42-1.22-0.87-1.8-1.33c-1.18-0.93-2.31-1.93-3.35-2.99c-0.53-0.53-1.05-1.09-1.54-1.65c-2.54-2.91-4.58-6.18-6.05-9.73
	c-0.91-2.21-1.61-4.54-2.07-6.92c-0.71-3.68-1.1-7.75-1.21-12.81c-0.07-2.8-0.05-5.66-0.03-8.42c0.01-2.1,0.03-4.2,0.01-6.29
	c-0.01-0.61-0.02-1.21-0.03-1.84l0-0.12l0.01-0.03c0.02-0.26,0.08-0.52,0.2-0.81c0.14-0.35,0.35-0.7,0.64-1.08l0.09-0.11
	c0.49-0.59,1.11-1.12,1.69-1.43c1.22-0.65,2.45-1.3,3.68-1.94c3.24-1.69,6.55-3.37,10.03-5.15l5.57-2.84l0.51,0.56
	c0.5,0.55,1.01,1.09,1.53,1.63c0.52,0.54,1.05,1.07,1.58,1.59c2.73,2.65,5.65,5.09,8.7,7.23c0.62,0.44,1.25,0.87,1.89,1.28
	c1.29,0.84,2.61,1.64,3.94,2.38c1.35,0.76,2.74,1.47,4.13,2.13c2.13,1,4.34,1.9,6.56,2.66c0.75,0.26,1.51,0.5,2.28,0.74
	c0.11,0.03,0.62,0.17,0.62,0.17c1.06,0.31,2.17,0.59,3.32,0.86c0.34,0.08,0.68,0.16,1.03,0.23c1.95,0.43,3.96,0.8,5.9,1.16
	c2.47,0.46,5.03,0.93,7.52,1.53c0.2,0.05,0.42,0.11,0.64,0.2c0.52,0.2,1.08,0.5,1.61,0.87c0.8,0.55,1.77,1.42,1.85,2.45
	c1.29,17.02-4.09,29.48-16.45,38.08c-6.2,4.32-13.49,6.6-21.09,6.6c-1.71,0-3.44-0.12-5.14-0.35c-0.19-0.03-0.38-0.05-0.63-0.09
	c-1.16-0.18-2.34-0.41-3.51-0.71c-0.38-0.1-0.76-0.2-1.14-0.31c-0.96-0.27-1.92-0.58-2.87-0.93
	C299.39,335.86,296.49,334.36,293.86,332.53z M296.42,350.11l-1.63,1.69c-2.19,2.26-5.51,3.56-9.13,3.56
	c-3.55,0-6.87-1.29-9.12-3.55l-1.7-1.71H296.42z M223.72,377.61c0.18-1.15,0.41-2.25,0.69-3.27c0.96-3.48,2.58-6.74,4.8-9.68
	c0.37-0.49,0.76-0.97,1.16-1.44c1.61-1.88,3.5-3.63,5.62-5.22c6.04-4.52,12.41-6.9,18.94-7.07c0.25-0.01,0.5-0.01,0.74-0.01
	c4.93,0,9.92,1.27,14.83,3.77c2.71,1.38,5.16,3.02,7.28,4.87l0.35,0.3c2.48,2.22,4.54,4.83,6.15,7.74c0.29,0.53,0.56,1.06,0.82,1.61
	c2.02,4.26,3.16,9.2,3.36,14.67l0.05,1.33l-1.31-0.24c-5.17-0.94-8.85-3.42-11.94-8.04c-2.14-3.21-4-4.79-5.77-4.84
	c-1.64,0-3.55,1.44-5.84,4.4c-3.75,4.84-8.44,7.83-14.34,9.14c0,0-0.51,0.11-0.72,0.15c-1.72,0.34-3.54,0.54-5.42,0.6
	c-0.44,0.01-0.88,0.02-1.32,0.02c-0.86,0-1.72-0.03-2.6-0.07c-1.26-0.07-2.61-0.19-3.99-0.36l-11.88-1.46l-0.03-0.91
	c-0.06-1.84,0.03-3.68,0.27-5.47L223.72,377.61z M246.55,287.57c-0.84,6.3-5.52,6.79-6.93,6.79c-0.37,0-0.59-0.03-0.59-0.03
	l-0.57-0.08l-0.01-0.58l-0.09-12.89l0.6-0.06c0.01,0,0.34-0.04,0.85-0.04c1.42,0,4.02,0.27,5.59,2.06
	C246.43,283.93,246.82,285.55,246.55,287.57z M153.14,293.67l-0.01,0.58l-0.57,0.08c0,0-0.22,0.03-0.59,0.03
	c-1.41,0-6.09-0.49-6.93-6.79c-0.27-2.02,0.12-3.64,1.16-4.83c1.57-1.79,4.18-2.06,5.59-2.06c0.51,0,0.83,0.04,0.85,0.04l0.6,0.06
	L153.14,293.67z M153.92,273.31c-1.33,0.35-2.88,0.52-4.72,0.54l-0.97,0.01l-0.04-0.97c-0.41-10.64,1.6-20.01,5.98-27.84
	c0.5-0.89,1.03-1.77,1.59-2.62c2.26-3.44,5.06-6.62,8.32-9.43c1.65-1.42,3.44-2.78,5.34-4.05c6.77-4.49,13.78-7.25,20.85-8.2
	c0.54-0.07,1.09-0.14,1.63-0.19c1.32-0.13,2.66-0.19,3.98-0.19c8.5,0,17.04,2.58,25.39,7.68c10.02,6.11,16.82,14.43,20.22,24.73
	c0.33,1,0.63,2.03,0.9,3.07c1.31,5.09,1.86,10.71,1.65,16.7l-0.03,0.85l-0.85,0.1c-0.79,0.1-1.55,0.15-2.25,0.15
	c-2.79,0-4.94-0.78-6.58-2.38c-0.21-0.2-0.41-0.42-0.6-0.65c-0.92-1.11-1.64-2.52-2.21-4.31c-0.35-1.1-0.51-2.23-0.68-3.32
	l-0.16-1.05c-0.1-0.59-0.22-1.14-0.35-1.68c-0.69-2.86-1.78-4.69-3.43-5.77c-0.18-0.12-0.36-0.22-0.55-0.32
	c-1.31-0.69-2.99-1.02-5.11-1.02l-0.38,0.01c-0.41,0.01-0.83,0.02-1.27,0.05c-2.01,0.14-4.07,0.36-6.06,0.58
	c-3.23,0.35-6.57,0.72-9.88,0.72l-0.44,0c-6.19,0-12.48-0.28-18.56-0.55c-2.13-0.1-4.27-0.19-6.4-0.27
	c-1.06-0.04-2.12-0.15-3.15-0.25c-1.08-0.11-2.2-0.22-3.28-0.25c-0.23-0.01-0.45-0.01-0.67-0.01c-0.18,0-0.35,0-0.52,0.01
	c-0.43,0.01-0.83,0.04-1.22,0.08c-0.5,0.05-0.99,0.13-1.48,0.23c-0.28,0.06-0.56,0.14-0.82,0.22c-0.18,0.06-0.35,0.12-0.52,0.18
	c-2.67,1.05-4.18,3.42-4.91,7.69l-0.11,0.63c-0.13,0.79-0.27,1.58-0.42,2.36C160.22,269.56,157.98,272.25,153.92,273.31z
	 M158.41,303.14c-0.05-0.87-0.08-1.75-0.09-2.62c-0.02-1.51,0-3.04,0.03-4.52c0.01-0.76,0.02-1.51,0.03-2.27l-0.09,0v-1
	c0-0.59,0.01-1.18,0.02-1.77l0.02-1.03c0.01-0.74,0.01-1.7-0.05-2.72c-0.08-1.26-0.09-2.36-0.02-3.36c0.02-0.33,0.06-0.65,0.1-0.97
	c0.06-0.47,0.14-0.93,0.25-1.38c0.09-0.41,0.21-0.81,0.34-1.21c0.43-1.28,1.04-2.45,1.87-3.55c0.18-0.24,0.38-0.49,0.58-0.73
	c0.21-0.24,0.42-0.48,0.65-0.72c0.23-0.24,0.47-0.48,0.73-0.71c0.32-0.3,0.64-0.66,1.01-1.13c0.72-0.93,1.36-2.08,1.91-3.41
	c0.71-1.73,1.29-3.81,1.68-6.03c0.04-0.2,0.08-0.39,0.12-0.58l0.06-0.28c0.16-0.67,0.35-1.22,0.58-1.68
	c0.09-0.18,0.18-0.35,0.28-0.5c0.14-0.23,0.31-0.44,0.52-0.65c0.14-0.14,0.28-0.27,0.43-0.38c0.37-0.27,0.79-0.48,1.25-0.61
	c0.3-0.09,0.61-0.14,0.94-0.17c0.23-0.02,0.48-0.03,0.73-0.03c0.45,0,0.98,0.03,1.6,0.1l2.74,0.31c4.62,0.52,9.4,1.06,14.07,1.19
	c0.69,0.02,1.39,0.03,2.08,0.03l0.3,0c2.04-0.01,4.16-0.05,6.31-0.12c5.81-0.2,12-0.64,18.92-1.34c0.61-0.06,1.14-0.09,1.61-0.09
	c1,0,2.45,0.12,3.51,1.15c0.84,0.82,1.31,2.07,1.52,4.03c0.13,1.25,0.38,2.47,0.72,3.63c0.17,0.58,0.38,1.15,0.6,1.71
	c1.11,2.72,2.89,5.18,5.27,7.3l0.15,0.14c0.51,0.45,0.99,1.05,1.4,1.73c0.6,1,0.93,2.04,0.93,2.93c0.01,0.98,0.02,1.97,0.03,2.96
	l0.02,1.64c0.02,1.43,0.04,2.87,0.05,4.3c0.01,0.99,0.01,1.98,0.01,2.98c-0.02,4.69-0.2,8.48-0.56,11.91
	c-0.39,3.69-1.29,7.27-2.67,10.64c-0.67,1.64-1.46,3.24-2.35,4.76c-0.59,1-1.23,1.99-1.9,2.93c-0.34,0.47-0.69,0.94-1.05,1.39
	c-0.71,0.9-1.48,1.78-2.27,2.61c-0.4,0.42-0.8,0.82-1.22,1.22c-1.66,1.59-3.48,3.03-5.4,4.28c-0.96,0.63-1.96,1.22-2.98,1.75
	c-1.02,0.54-2.08,1.03-3.14,1.47c-0.54,0.22-1.08,0.43-1.63,0.63c-4.06,1.46-8.33,2.2-12.7,2.2c-0.45,0-0.9-0.01-1.35-0.02
	C175.26,338.77,159.57,323.16,158.41,303.14z M182.8,375.8l-12.54-16.03l0.67-0.69c0.62-0.64,1.25-1.19,1.87-1.63
	c0.15-0.1,0.29-0.2,0.44-0.29c0.46-0.29,0.92-0.52,1.37-0.69c0.35-0.13,0.7-0.22,1.03-0.28c0.29-0.05,0.57-0.08,0.86-0.08h0.02
	c1.17,0.01,2.33,0.43,3.46,1.27c0.4,0.3,0.82,0.67,1.26,1.11c0.2,0.21,0.41,0.43,0.61,0.67c0.56,0.65,1.17,1.31,1.87,2.04
	c1.13,1.17,2.33,2.32,3.6,3.54c0.94,0.9,1.91,1.83,2.91,2.83l2.06,2.82L182.8,375.8z M198.02,363.11c-0.36,0.47-0.66,0.92-0.93,1.37
	l-0.95,1.6l-0.97-1.59c-0.5-0.81-1.08-1.59-1.79-2.38c-0.33-0.37-0.68-0.73-1.03-1.08c-1.06-1.05-2.22-2.02-3.34-2.96
	c-2.2-1.84-4.47-3.74-5.95-6.2c-1.3-2.16-1.87-4.5-1.73-7.15l0.06-1.06c0,0,5.86,2.38,14.7,2.47c6.81,0.07,14.64-2.47,14.64-2.47
	l0.11,0.99c0.22,1.92,0.05,3.65-0.52,5.27c-1.22,3.49-4.12,5.83-6.93,8.09C201.5,359.55,199.52,361.15,198.02,363.11z
	 M209.18,376.05l-9.67-6.61l2.26-2c0.46-0.44,0.92-0.89,1.37-1.33c0.48-0.47,1.8-1.8,1.8-1.8c1.74-1.74,3.38-3.38,5.14-4.93
	c1.03-0.9,1.99-1.69,2.96-2.39c0.5-0.36,1.12-0.55,1.88-0.58l0.03,0h0.19c0.93,0,1.98,0.2,3.2,0.44c0.33,0.06,0.68,0.13,1.04,0.2
	c0.6,0.11,4.14,1.33,4.14,1.33L209.18,376.05z M227.05,402.97l-0.01,0.53l-0.52,0.07c0,0-0.2,0.03-0.54,0.03
	c-1.3,0-5.61-0.45-6.39-6.25c-0.25-1.86,0.11-3.35,1.06-4.44c1.45-1.65,3.85-1.9,5.15-1.9c0.47,0,0.77,0.03,0.78,0.03l0.55,0.06
	L227.05,402.97z M272.05,446.72l0.29-0.24c0.4-0.33,0.81-0.66,1.26-0.95c0.23-0.15,0.48-0.29,0.75-0.4
	c0.18-0.08,0.41-0.18,0.68-0.23c0.92-0.19,1.88-0.28,2.85-0.28c0.29,0,0.57,0.01,0.86,0.02c0.61,0.03,1.24,0.11,1.86,0.21
	c0.69,0.12,1.42,0.3,2.29,0.57c7.45,2.31,13.38,9,14.1,15.91l0.28,2.6c0.28,2.58,0.57,5.18,0.87,7.81l0.36,3.07
	c0.26,2.22,0.52,4.47,0.78,6.79l0.13,1.15H286.4c0,0-0.16-2.6-0.2-3.4c-0.1-1.74-0.19-3.42-0.33-5.09
	c-0.03-0.32-0.06-0.63-0.11-0.93c-0.03-0.14-0.05-0.29-0.09-0.43c-0.34-1.44-1-2.27-2.05-2.53c-0.21-0.05-0.42-0.09-0.69-0.1
	l-0.19,0c-0.09,0-0.18,0-0.28,0.01c-0.32,0.02-0.61,0.06-0.87,0.13c-0.54,0.15-2.2,0.6-2.11,4.21c0.04,1.47,0.12,2.97,0.21,4.56
	c0.04,0.76,0.09,1.54,0.13,2.36l0.06,1.08h-47.42v-1.03c0-0.87,0.05-1.71,0.1-2.52c0.05-0.79,0.09-1.54,0.09-2.24
	c-0.01-0.91-0.1-1.63-0.29-2.24c-0.26-0.85-0.87-1.62-1.42-2.27c-0.27-0.31-0.55-0.62-0.83-0.93c-0.22-0.24-0.43-0.48-0.65-0.72
	c-0.25,0.22-0.51,0.44-0.76,0.65c-0.54,0.45-1.05,0.88-1.5,1.33c-0.54,0.55-0.87,1.02-1.05,1.5c-0.46,1.22-0.49,2.69-0.48,4.23
	l0.01,0.58c0.01,0.86,0.02,1.76-0.03,2.68l-0.05,0.98h-12.65v-1.03c0-0.5-0.01-0.99-0.03-1.48c-0.02-0.7-0.04-1.4-0.02-2.08
	c0.01-0.41,0.03-0.83,0.08-1.24c0.05-0.44,0.1-0.88,0.15-1.32l0.07-0.62c0.19-1.66,0.39-3.31,0.59-4.97
	c0.38-3.08,0.77-6.26,1.06-9.39c0.49-5.2,2.71-9.04,6.61-11.41c0.32-0.2,0.66-0.38,1.01-0.56c1.03-0.52,2.17-0.96,3.4-1.31
	c0.41-0.12,0.82-0.24,1.23-0.37l0.67-0.21c1.93-0.59,3.93-1.21,5.99-1.41c0.27-0.03,0.55-0.04,0.84-0.04c0.22,0,0.44,0.01,0.67,0.02
	c1.72,0.12,3.31,0.67,4.37,1.5c0.97,0.76,2.02,1.49,3.22,2.23l0.2,0.12c0.28,0.18,0.56,0.35,0.85,0.51c3.98,2.26,8.04,3.4,12.08,3.4
	c1.33,0,2.68-0.13,4.01-0.38c1.35-0.25,2.71-0.64,4.05-1.16C266.78,450.38,269.46,448.8,272.05,446.72z M243.85,444.57l0.35-0.95
	c0.14-0.39,0.3-0.79,0.45-1.19l0.1-0.27c0.27-0.69,0.54-1.38,0.78-2.09c0.13-0.39,0.26-0.78,0.37-1.17
	c0.31-1.11,0.52-2.27,0.75-3.49c0.1-0.56,0.21-1.14,0.33-1.72l0.2-1.01h17.41l3.03,11.59l-0.59,0.51c-2.93,2.56-6.54,3.94-10.45,4
	l-0.26,0c-1.85,0-3.75-0.3-5.65-0.88c-1-0.31-2-0.7-2.99-1.16c-0.5-0.23-1-0.49-1.49-0.76c-0.49-0.27-0.99-0.56-1.48-0.88
	L243.85,444.57z M280.91,405.35c-0.07,2.48-0.5,4.92-1.27,7.25c-2.58,7.79-8.87,13.8-16.83,16.09c-2.2,0.63-4.45,0.97-6.67,1.01
	l-0.43,0c-13.25,0-24.16-10.43-24.84-23.75c-0.13-2.59-0.13-5.15-0.11-7.32c0.01-0.91,0.04-3.75,0.04-3.75
	c0.01-1.26,0.03-2.55,0.03-3.86v-1.23l1.21,0.18c3.24,0.49,6.34,0.74,9.22,0.74c7.03,0,13.01-1.42,18.3-4.35
	c1.07-0.59,1.94-1.12,2.73-1.67c1.33-0.92,2.62-1.96,3.84-3.08c0.62-0.57,1.23-1.18,1.83-1.82l0.66-0.7l0.76,0.59
	c0.94,0.72,1.86,1.43,2.77,2.12c1.71,1.3,3.32,2.53,4.91,3.81c0.73,0.59,1.45,1.18,2.15,1.79c1.11,0.96,1.65,2.83,1.69,4.26
	c0.07,2.25,0.1,4.55,0.1,6.85C281.01,400.74,280.97,403.04,280.91,405.35z M291.22,397.34c-0.78,5.8-5.08,6.25-6.39,6.25
	c-0.34,0-0.55-0.03-0.55-0.03l-0.52-0.07l-0.01-0.53l-0.08-11.87l0.55-0.06c0.01,0,0.31-0.03,0.78-0.03c1.3,0,3.71,0.25,5.15,1.9
	C291.11,393.99,291.47,395.49,291.22,397.34z M293.32,385.79l-2.35-15.8l16.96,8.71L293.32,385.79z M317.49,372.08
	c-0.76,0.05-1.52,0.08-2.25,0.08c-2.16,0-4.26-0.23-6.25-0.68c-0.54-0.12-1.08-0.26-1.61-0.42c-2.11-0.62-4.19-1.53-6.16-2.7
	c-0.98-0.58-1.97-1.25-2.93-1.97c-1.41-1.06-2.82-2.31-4.23-3.74c-0.46-0.47-0.92-0.95-1.37-1.45l-1.38-1.52l2.05-0.15
	c3.08-0.22,5.27-0.96,6.71-2.25c0.13-0.11,0.24-0.23,0.36-0.35c0.22-0.23,0.42-0.49,0.6-0.76c0.09-0.13,0.17-0.27,0.25-0.41
	c1.14-2.07,1.14-4.88,1.14-7.59c0-0.79,0-1.57,0.03-2.34l0.03-0.97h25.95l0.14,0.84c0.03,0.17,0.05,0.33,0.07,0.5
	c0.14,1.08,0.18,2.24,0.22,3.36c0.19,5.18,0.35,9.65,8.57,9.83l1.98,0.04l-1.21,1.57c-1.41,1.83-2.93,3.44-4.53,4.8
	c-0.78,0.67-1.6,1.29-2.43,1.84C327.31,370.25,322.82,371.71,317.49,372.08z M348.72,368.4c-0.09,2.37-0.31,4.29-0.71,6.04
	c-0.18,0.82-0.41,1.61-0.67,2.35c-0.42,1.2-0.96,2.34-1.61,3.39c-0.46,0.74-0.98,1.46-1.54,2.13c-1.18,1.39-3.72,2.44-5.9,2.44
	l-0.24,0l0.08,0l-0.17-0.01c-0.33-0.02-0.61-0.05-0.87-0.11c-2.88-0.67-5.57-1.87-8.17-3.03c-1-0.45-1.98-0.89-2.94-1.28l-1.64-0.67
	l24.4-18.1l0.02,1.97C348.77,365.02,348.78,366.74,348.72,368.4z M386.51,472.41c-0.19,1.6-0.57,2.95-1.16,4.14
	c-0.4,0.81-0.9,1.53-1.49,2.17l-0.08,0.07c-0.46,0.48-1,0.92-1.64,1.34c-2.26,1.46-5.41,2.2-9.64,2.24
	c-0.9,0.01-1.72,0.02-2.46,0.02c-7.73,0-8.02-1.44-8.46-10.11l-0.01-0.21c-0.36-7.15-0.78-14.42-1.18-21.45
	c-0.29-5.02-0.58-10.04-0.85-15.06c-0.03-0.49-0.04-0.98-0.05-1.48c-0.01-0.87,0-1.75,0.01-2.68c0.01-0.69,0.02-1.41,0.02-2.16v-0.9
	l21.92-2.34l0.21,0.85c0.12,0.47,0.24,0.91,0.36,1.33c0.18,0.63,0.34,1.22,0.46,1.8c0.06,0.29,0.11,0.58,0.14,0.87
	c0.29,2.63,0.59,5.25,0.88,7.87c0.99,8.8,2.01,17.9,2.86,26.86l0.16,1.63c0.12,1.29,0.16,2.5,0.12,3.6
	C386.61,471.35,386.57,471.9,386.51,472.41z"/>
</svg>
