<?xml version="1.0" encoding="utf-8"?>
<!-- Generator: Adobe Illustrator 24.0.1, SVG Export Plug-In . SVG Version: 6.00 Build 0)  -->
<svg version="1.1" id="Layer_1" xmlns="http://www.w3.org/2000/svg" xmlns:xlink="http://www.w3.org/1999/xlink" x="0px" y="0px"
	 viewBox="0 0 512 512" style="enable-background:new 0 0 512 512;" xml:space="preserve">
<style type="text/css">
	.st0{fill:none;stroke:#000001;stroke-miterlimit:10;}
	.st1{fill:none;stroke:#010102;stroke-miterlimit:10;}
	.st2{fill:#F7F9FB;}
	.st3{fill:#010102;}
	.st4{fill:#FFFFFF;}
	.st5{fill:#474747;}
	.st6{fill-rule:evenodd;clip-rule:evenodd;}
	.st7{fill:#000001;}
	.st8{fill:#010101;}
	.st9{fill:#FD8274;}
	.st10{fill:#1A2DD8;}
	.st11{fill:#FFFFFF;stroke:#1A2DD8;stroke-miterlimit:10;}
	.st12{fill:#FD8274;stroke:#FD8274;stroke-miterlimit:10;}
	.st13{fill:#FD8274;stroke:#000000;stroke-width:8;stroke-linejoin:round;stroke-miterlimit:10;}
	.st14{fill-rule:evenodd;clip-rule:evenodd;fill:#1A2DD8;}
	.st15{fill-rule:evenodd;clip-rule:evenodd;fill:#FD8274;}
	.st16{fill:none;stroke:#000000;stroke-width:8;stroke-miterlimit:10;}
</style>
<path d="M234.74,405.93c-45.59,0-88.5-17.73-120.84-49.93c-32.45-32.3-50.33-75.35-50.37-121.21
	c-0.04-45.63,17.74-88.59,50.06-120.98c32.32-32.39,75.22-50.24,120.81-50.27h0.11c94.44,0,171.31,76.85,171.36,171.31
	c0.01,10.44-0.94,20.9-2.82,31.1c-2.25-0.48-4.48-1.05-6.66-1.68c0.87-4.8,1.89-10.96,2.45-17.44c0.19-2.35,0.19-5.29-1.61-7.25
	c-1.18-1.28-2.84-1.9-5.07-1.9c-0.65,0-1.36,0.05-2.13,0.16c-0.29,0.04-0.61,0.1-0.96,0.16c-0.39,0.07-0.82,0.15-1.18,0.19
	c-0.49-2.5-0.48-4.99,0.03-6.95c0.01,0,0.02,0,0.04,0c0.45,0,1.06,0.1,1.64,0.2c0.52,0.09,1.06,0.18,1.58,0.21
	c0.45,0.03,0.87,0.05,1.27,0.05c1.42,0,3.47-0.18,4.95-1.77c1.59-1.71,1.64-4.15,1.5-6.09c-0.65-8.91-2.32-17.69-3.92-26.19
	l-0.36-1.92c-0.34-1.79-1.36-7.22-6.41-7.22c-1.31,0-2.8,0.39-4.55,1.19c-0.28,0.13-0.58,0.28-0.88,0.44
	c-0.38,0.2-1.07,0.56-1.38,0.6c-0.05-0.04-0.16-0.15-0.3-0.37c-1.42-2.17-2-3.92-1.64-4.91c0.35-0.95,1.82-1.85,4.15-2.53
	c1.79-0.52,3.74-1.31,4.62-3.15c0.89-1.86,0.26-3.88-0.39-5.42c-3.49-8.31-7.71-16.69-13.27-26.39c-1.31-2.3-3.21-4.93-6.29-4.93
	c-1.78,0-3.51,0.86-5.63,2.78c-0.28,0.25-0.57,0.56-0.88,0.9c-0.41,0.44-0.73,0.75-0.95,0.95c-2.1-1.86-3.64-3.97-4.27-5.86
	c0.16-0.16,0.62-0.49,1.9-1.13c0.48-0.24,0.95-0.48,1.34-0.71c1.44-0.86,3.39-2.28,3.75-4.58c0.36-2.28-0.95-4.16-2.42-5.86
	c-5.43-6.27-11.79-12.7-20.01-20.24c-2.45-2.25-4.32-3.2-6.24-3.2c-3.24,0-5.09,2.75-6.2,4.81c-0.15,0.29-0.31,0.63-0.48,1
	c-0.24,0.54-0.41,0.88-0.53,1.09c-2.77-1.35-4.75-2.82-5.82-4.33c0.17-0.3,0.67-0.87,1.49-1.69c0.41-0.41,0.8-0.8,1.12-1.17
	c1.07-1.23,2.45-3.12,2.09-5.41c-0.35-2.28-2.21-3.7-4.17-4.9c-8.53-5.22-17.55-9.55-25.24-13.1c-2.12-0.97-3.69-1.41-5.1-1.41
	c-3.28,0-5.35,2.27-6.16,6.74c-0.05,0.29-0.09,0.61-0.14,0.95c-0.14,1.12-0.25,1.43-0.33,1.51c0,0-0.06,0.04-0.31,0.07
	c-0.3,0.04-0.6,0.05-0.88,0.05c-1.64,0-3-0.6-3.73-1.65c-0.75-1.07-0.84-2.54-0.26-4.16c0.66-1.83,1.26-4.19,0.09-6.27
	c-0.88-1.57-2.48-2.54-5.03-3.06c-9.01-1.83-18.64-3.68-28.6-4.6c-0.62-0.06-1.21-0.09-1.75-0.09c-2.71,0-4.63,0.73-5.88,2.22
	c-1.33,1.6-1.69,3.8-1.11,6.93c0.22,1.17,0.11,1.7,0.05,1.81c-0.36,0.28-2.4,0.31-3.17,0.32l-0.67,0c-2.14,0-2.64-0.24-2.76-0.34
	c-0.06-0.1-0.19-0.68,0.06-2.01c0.6-3.17,0.22-5.62-1.15-7.27c-1.06-1.28-2.59-1.95-4.43-1.95c-0.75,0-1.56,0.11-2.4,0.34
	c-9.92,0.82-18.51,2.18-27.03,4.25l-0.15,0.04c-3.82,0.94-5.93,1.45-7.05,3.37c-1.11,1.9-0.54,3.92,0.5,7.6l0.07,0.27
	c0.14,0.48,0.32,0.93,0.49,1.32c0.1,0.23,0.26,0.61,0.32,0.83c-0.06,0.04-0.14,0.09-0.27,0.17c-2.01,1.18-3.53,1.77-4.52,1.77
	c-0.5,0-1.65,0-2.94-4.35c-0.4-1.36-1.46-4.98-5.16-4.98c-0.98,0-2.08,0.27-3.47,0.85c-8.31,3.46-16.95,7.79-26.41,13.23
	c-2.18,1.26-4.46,2.9-4.87,5.53c-0.4,2.59,1.24,4.79,2.72,6.42c0.26,0.29,0.59,0.6,0.94,0.92c0.48,0.44,0.75,0.72,0.91,0.9
	c-1.85,2.08-3.96,3.62-5.88,4.29c-0.32-0.35-0.82-1.36-1.04-1.81c-0.25-0.51-0.49-0.99-0.74-1.4c-1-1.66-2.65-3.87-5.38-3.87
	c-2.02,0-3.76,1.29-5.05,2.42c-7.68,6.73-14.05,13.05-19.48,19.32c-2.72,3.14-4.22,4.86-4,7.16c0.22,2.28,1.97,3.65,5.16,6.15
	l0.11,0.08c0.4,0.31,0.8,0.55,1.2,0.78c0.15,0.09,0.28,0.16,0.39,0.23c-1.07,2.03-2.47,4.33-4.22,5.61c-0.34-0.21-1.12-1-1.48-1.35
	c-0.42-0.42-0.85-0.85-1.31-1.23c-1.81-1.48-3.29-2.14-4.79-2.14c-2.71,0-4.37,2.16-5.52,4.05c-4.86,8.03-9.36,16.79-13.74,26.77
	c-0.83,1.9-1.55,4.12-0.51,6.19c1.04,2.08,3.28,2.84,5.12,3.27c0.53,0.12,1.08,0.2,1.61,0.27c1.46,0.2,1.9,0.36,2.03,0.45
	c0,0.01,0,0.06,0.01,0.13c0.1,2.48-0.73,5.03-2.16,6.68c-0.5-0.06-1.4-0.51-2.02-0.82c-0.39-0.19-0.76-0.38-1.12-0.53
	c-1.47-0.65-2.74-0.96-3.88-0.96c-3.07,0-5.03,2.06-5.81,6.13l-0.1,0.5c-1.71,8.78-3.47,17.84-4.38,26.98
	c-0.27,2.72-0.3,5.78,1.58,7.86c1.2,1.33,2.89,1.98,5.17,1.98c0.79,0,1.65-0.08,2.61-0.24c0.19-0.03,0.39-0.07,0.62-0.11
	c0.32-0.06,0.66-0.13,0.96-0.17c0.43,2.76,0.41,5.08-0.05,6.91c-0.02,0-0.03,0-0.05,0c-0.46,0-1.08-0.1-1.68-0.21
	c-0.53-0.09-1.04-0.17-1.49-0.21c-0.47-0.04-0.91-0.06-1.31-0.06c-1.4,0-3.43,0.18-4.91,1.77c-1.6,1.71-1.64,4.18-1.5,6.13
	c0.67,9.35,2.46,18.58,4.19,27.5l0.12,0.62c0.38,1.97,1.39,7.19,6.42,7.19c1.29,0,2.74-0.37,4.45-1.14c0.32-0.15,0.65-0.32,1-0.5
	c0.37-0.2,1.02-0.55,1.32-0.6c0.05,0.05,0.15,0.14,0.28,0.34c1.47,2.17,2.07,3.93,1.69,4.96c-0.25,0.67-1.15,1.64-4.03,2.43
	c-1.71,0.47-3.8,1.27-4.74,3.23c-0.94,1.95-0.27,4.06,0.51,5.86c3.2,7.45,7.16,16.18,12.31,24.51c2.5,4.05,3.87,6.28,6.75,6.28
	c1.94,0,3.66-1.15,6.77-3.25c0.51-0.34,0.89-0.69,1.22-1c1.52,1.65,3.05,3.52,3.95,5.5c-0.32,0.21-0.74,0.45-0.92,0.56
	c-0.68,0.4-1.38,0.81-1.99,1.33c-0.54,0.48-1.19,0.9-1.88,1.35c-1.23,0.81-2.5,1.86-2.72,3.6c-0.22,1.81,0.86,3.26,1.84,4.32
	c8.28,9.12,14.91,15.82,21.51,21.73c2.34,2.1,4.12,2.99,5.96,2.99c3.12,0,4.94-2.66,6.04-4.66c0.16-0.29,0.32-0.62,0.49-0.97
	c0.31-0.66,0.53-1.05,0.68-1.29c2.36,1.12,4.41,2.67,5.75,4.33c-0.23,0.29-0.64,0.76-1.38,1.53c-0.38,0.4-0.75,0.78-1.04,1.14
	c-1.21,1.43-2.55,3.37-2.17,5.66c0.38,2.32,2.32,3.75,3.96,4.74c8.4,5.06,17.42,9.68,26.8,13.72c1.63,0.7,2.85,1.01,3.97,1.01
	c4.15,0,5.17-4.17,5.5-5.54c0.14-0.56,0.21-1.14,0.28-1.7c0.19-1.43,0.34-1.89,0.44-2.02c0,0,0.06-0.01,0.12-0.01
	c0.18-0.01,0.35-0.02,0.53-0.02c2.26,0,4.56,0.82,6.17,2.2c-0.03,0.2-0.18,0.69-0.8,1.92c-0.2,0.4-0.4,0.79-0.56,1.16
	c-0.72,1.66-1.55,4.13-0.37,6.38c1.19,2.26,3.72,2.99,5.52,3.34l0.6,0.12c8.92,1.76,18.13,3.58,27.46,4.38
	c0.7,0.06,1.31,0.09,1.89,0.09c1.72,0,4.2-0.22,5.86-2.13c1.34-1.55,1.75-3.69,1.3-6.76c-0.04-0.26-0.09-0.55-0.15-0.86
	c-0.11-0.61-0.17-1.01-0.2-1.28c1.2-0.23,2.45-0.36,3.62-0.36c1.22,0,2.34,0.13,3.34,0.39c0,0.25-0.04,0.76-0.21,1.78
	c-0.09,0.52-0.17,1.02-0.21,1.47c-0.24,2.78,0.19,4.61,1.42,5.95c1.5,1.63,3.62,1.82,5.09,1.82c0.41,0,0.85-0.02,1.32-0.05
	c8.94-0.66,17.77-2.32,26.31-3.94l1.8-0.34c0.88-0.16,1.65-0.35,2.32-0.56c0.74,2.06,1.55,4.13,2.41,6.17
	c-14.15,3.74-28.82,5.64-43.61,5.65H234.74z M234.86,359.57L234.86,359.57c11.5,0,22.9-1.59,33.9-4.72
	c-0.01-0.73-0.02-1.49-0.02-2.28v-4.58c-10.82,3.22-22.08,4.86-33.49,4.86c-0.37,0-0.74,0-1.11-0.01
	c-32.12-0.3-62.06-13.02-84.31-35.82c-21.87-22.4-33.67-51.91-33.21-83.09c0.95-65.77,52.61-117.29,117.63-117.29
	c0.51,0,1.02,0,1.54,0.01c31.7,0.4,61.32,12.96,83.4,35.38c22.08,22.43,34.02,52.08,33.62,83.49c-0.12,9.03-1.24,18.01-3.32,26.72
	c0.97-0.36,1.94-0.73,2.89-1.12c0.06-0.03,0.13-0.05,0.25-0.11l4.55-2.09c1.56-7.89,2.35-16.01,2.35-24.13
	c0-33.21-13.01-64.53-36.64-88.19c-23.63-23.66-54.9-36.7-88.06-36.7h-0.11c-68.78,0.07-124.77,56.06-124.82,124.82
	c-0.05,68.75,55.93,124.76,124.78,124.85L234.86,359.57z M268.74,324.58v-8.5c-1.1-0.32-2.41-1.23-3-3.67
	c-1.65-6.89-3.3-13.77-4.9-20.44l-2.9-12.06l-0.01-0.27c-0.07-3.19,0.88-5.95,2.65-7.76c1.42-1.45,3.25-2.22,5.28-2.22
	c0.95,0,1.91,0.17,2.87,0.51v-6.87c-1.04-0.23-2.06-0.34-3.04-0.34c-2.79,0-5.41,0.88-8.01,2.68c-5.76,4-7.63,9.71-5.71,17.48
	c1.2,4.82,2.33,9.69,3.42,14.41c1.27,5.48,2.58,11.14,3.99,16.68c0.37,1.47,0.68,3.37-0.33,5c-0.99,1.61-2.77,2.18-4.21,2.5
	c-7.36,1.63-13.28,2.38-18.64,2.38c-0.43,0-0.86-0.01-1.21-0.01l-0.77,0c-6.3,0-12.55-0.75-19.67-2.37
	c-1.57-0.35-3.3-0.92-4.27-2.51c-0.99-1.62-0.7-3.49-0.33-4.94c2.04-8.05,3.92-16.3,5.74-24.29c0.64-2.79,1.27-5.58,1.92-8.36
	c1.51-6.54-0.36-11.81-5.56-15.67c-2.73-2.03-5.62-3.06-8.57-3.06c-2.63,0-5.32,0.81-8.02,2.41c-9.63,5.71-19.1,11.49-28.15,17.19
	c-1.54,0.98-2.88,1.63-4.36,1.63c-2.97,0-4.53-2.73-5.05-3.63c-6.55-11.49-10.67-24.21-12.25-37.81c-0.16-1.33-0.22-3.28,1.05-4.82
	c1.26-1.52,3.15-1.84,4.67-1.96c8.14-0.6,16.41-1.29,24.42-1.97l6.92-0.58c5.64-0.46,10.1-2.49,12.89-5.85
	c2.41-2.9,3.45-6.73,3-11.08c-0.39-3.86-2.29-7.13-5.96-10.29c-2.14-1.84-4.28-3.69-6.42-5.54l-0.13-0.11
	c-5.64-4.88-11.47-9.93-17.32-14.73c-1.43-1.18-3.09-2.82-3.24-5.1c-0.15-2.27,1.24-4.07,2.47-5.38
	c8.87-9.52,19.26-17.03,30.89-22.35c1.49-0.68,2.7-1,3.82-1c3.75,0,5.17,3.56,5.64,4.73c2.05,5.15,4.23,10.35,6.36,15.44
	c1.86,4.44,3.78,9.03,5.61,13.58c2.85,7.05,7.54,10.48,14.35,10.48l0.2,0c6.65-0.07,11.26-3.48,14.09-10.44
	c1.77-4.38,3.61-8.78,5.4-13.06c2.19-5.23,4.45-10.63,6.57-15.97c0.47-1.18,1.9-4.78,5.68-4.78c1.12,0,2.32,0.31,3.77,0.99
	c11.86,5.5,22.26,13.03,30.89,22.37c1.26,1.36,2.68,3.21,2.51,5.48c-0.13,1.79-1.12,3.34-3.21,5.03
	c-4.35,3.52-8.65,7.24-12.81,10.84c-3.36,2.9-6.83,5.91-10.31,8.79c-6.25,5.18-8.25,10.89-6.14,17.46
	c2.11,6.55,7.27,10.01,15.77,10.57c4.4,0.29,8.86,0.67,13.18,1.04c5.42,0.46,11.02,0.94,16.53,1.24c2.74,0.14,4.48,0.82,5.62,2.19
	c1.38,1.66,1.43,3.75,1.08,6.37c-1.09,8.31-3.15,16.32-6.12,23.83c2.34-0.03,4.68-0.14,7-0.33c3.81-10.34,5.88-21.26,6.15-32.45
	c0.58-24.56-8.62-48.05-25.92-66.16c-18.02-18.86-42.47-29.56-68.84-30.14c-0.68-0.01-1.37-0.02-2.06-0.02
	c-24.79,0-48.27,9.71-66.13,27.33c-18.02,17.78-28.26,41.7-28.82,67.33c-0.54,24.9,8.86,48.69,26.46,66.99
	c18.15,18.87,42.61,29.5,68.89,29.96c0.56,0.01,1.11,0.01,1.66,0.01C247.13,330.6,258.21,328.58,268.74,324.58z M202.7,269.67
	l0.48,0.04c3.14,0.27,5.54,1.42,6.96,3.32c1.24,1.67,1.64,3.79,1.15,6.15c-1.69,8.11-3.63,16.29-5.53,24.25
	c-0.72,3.01-1.43,6.02-2.14,9.03c-0.78,3.33-2.83,3.83-3.99,3.83c-1.14,0-2.14-0.5-2.95-0.9c-0.19-0.09-0.38-0.19-0.57-0.28
	c-10.57-4.74-19.23-12.47-26.87-19.29c-1.45-1.28-2.11-2.66-1.98-4.1c0.08-0.94,0.56-2.28,2.35-3.36
	c10.83-6.51,20.41-12.23,29.3-17.47c0.97-0.58,2.01-0.8,2.84-0.98c0.18-0.04,0.35-0.07,0.5-0.12L202.7,269.67z M313.13,192.41
	c4.56,8.43,7.73,17.68,9.69,28.27c0.41,2.2,0.67,4.98-0.92,6.88c-0.98,1.17-2.41,1.77-4.27,1.77c-0.81,0-1.7-0.11-2.72-0.34
	c-0.24-0.05-0.61-0.06-1-0.07c-0.27-0.01-0.54-0.02-0.84-0.04c-2.25-0.19-7.16-0.63-7.16-0.63c-6.31-0.56-12.84-1.13-19.28-1.61
	c-3.08-0.23-7.36-1.08-9.06-5.85c-1.8-5.09,1.96-8.34,3.56-9.72c2.14-1.85,4.28-3.69,6.42-5.53l0.25-0.22
	c5.49-4.72,11.16-9.6,16.67-14.47c1.1-0.97,2.46-1.97,4.1-1.97C311.23,188.88,312.61,191.44,313.13,192.41z M164.8,190.78
	c4.3,3.76,8.71,7.55,13.04,11.28l0.13,0.12c3.54,3.05,7.08,6.09,10.61,9.16c1.24,1.08,5.01,4.37,3.25,9.34
	c-1.27,3.61-4.11,5.6-8.44,5.91c-6.51,0.48-13.13,1.06-19.53,1.62c0,0-4.72,0.42-6.94,0.61c-1.91,0.15-3.57,0.29-4.89,0.29
	c-1.65,0-3.7-0.2-4.97-1.75c-1.62-1.99-1.05-4.73-0.11-9.28c2-9.58,5.01-17.94,9.22-25.58c0.98-1.78,2.3-3.6,4.61-3.6
	C162.44,188.9,163.74,189.86,164.8,190.78z M250.55,146.89c0.16,0.03,0.32,0.05,0.52,0.08c3.49,0.52,5.05,2.33,4.64,5.38l-0.05,0.35
	l-0.14,0.33c-0.22,0.51-0.44,0.99-0.64,1.47l-2.2,5.28c-3.29,7.87-6.57,15.74-9.83,23.62c-0.64,1.53-2.57,6.2-8.11,6.2l-0.15,0
	c-5.51-0.09-7.45-4.81-8.09-6.37l-2.02-4.91c-3.17-7.71-6.45-15.68-9.84-23.42c-0.68-1.55-1.34-3.57-0.37-5.39
	c0.96-1.8,2.94-2.37,4.75-2.7c5.23-0.92,10.5-1.39,15.66-1.39C239.98,145.43,245.31,145.92,250.55,146.89z M234.65,255.26
	c11.46,0,20.49-8.89,20.57-20.24c0.09-11.39-9-20.72-20.24-20.81l-0.16,0c-11.47,0-20.54,8.9-20.66,20.26
	c-0.12,11.35,8.98,20.68,20.26,20.79L234.65,255.26z M234.72,220.71c3.78,0.02,7.32,1.51,9.94,4.2c2.65,2.71,4.06,6.31,3.98,10.14
	c-0.16,7.67-6.28,13.68-13.95,13.68c-3.84-0.01-7.4-1.51-10.04-4.22c-2.63-2.7-4.02-6.29-3.92-10.11c0.19-7.55,6.44-13.7,13.91-13.7
	L234.72,220.71z M394.03,425.89c23.08-14.93,36.86-39.45,36.86-65.6v-60.92l-9.68,4.45c-12.75,5.19-27.42,5.29-40.3,0.26
	l-12.12-5.32l-11.08,5.08c-12.75,5.18-27.43,5.27-40.3,0.22l-10.75-4.73v60.95c0,26.15,13.78,50.67,36.86,65.6l25.26,15.73
	L394.03,425.89z M314.66,360.3v-48.71c14.69,5.72,31.47,5.6,46.06-0.33c0.12-0.05,0.23-0.1,0.37-0.16l7.76-3.56l8.82,3.87
	c0.12,0.05,0.24,0.1,0.37,0.15c14.27,5.58,30.52,5.64,44.85,0.21v48.53c0,23.42-12.41,45.43-33.15,58.84l-20.97,13.06l-20.94-13.04
	C327.06,405.71,314.66,383.7,314.66,360.3z M370.15,468.6l33.44-20.83c31-20.03,49.51-52.99,49.51-88.17v-81.12
	c0-0.9-0.45-1.72-1.21-2.21c-0.42-0.27-0.91-0.41-1.42-0.41c-0.38,0-0.75,0.08-1.1,0.24l-14.75,6.78l-0.1,0.04
	c-7.78,3.15-16.06,4.74-24.61,4.74c-8.24,0-16.26-1.5-23.85-4.45l-16.27-7.13c-0.33-0.15-0.69-0.22-1.05-0.22
	c-0.38,0-0.75,0.08-1.09,0.24l-14.84,6.8l-0.1,0.04c-7.76,3.13-16.03,4.72-24.55,4.72c-8.25,0-16.29-1.5-23.9-4.47l-16.18-7.11
	c-0.34-0.15-0.69-0.22-1.06-0.22c-0.51,0-1.01,0.15-1.43,0.43c-0.75,0.49-1.19,1.31-1.19,2.2v81.12c0,35.18,18.53,68.15,49.55,88.19
	l33.4,20.81c0.42,0.26,0.9,0.4,1.39,0.4S369.74,468.86,370.15,468.6z M292.38,285.58l12.07,5.31l0.13,0.06
	c7.91,3.1,16.32,4.67,24.99,4.67c8.96,0,17.63-1.67,25.72-4.96l0.15-0.06l13.35-6.12l14.81,6.49c7.89,3.09,16.28,4.65,24.93,4.65
	c8.86,0,17.79-1.73,25.83-5l10.8-4.96v74.39c0,32.23-17,62.46-45.51,80.9l-30.88,19.23l-30.94-19.27
	c-28.46-18.41-45.45-48.64-45.45-80.86V285.58z"/>
</svg>
