<?xml version="1.0" encoding="utf-8"?>
<!-- Generator: Adobe Illustrator 24.0.1, SVG Export Plug-In . SVG Version: 6.00 Build 0)  -->
<svg version="1.1" id="Layer_1" xmlns="http://www.w3.org/2000/svg" xmlns:xlink="http://www.w3.org/1999/xlink" x="0px" y="0px"
	 viewBox="0 0 512 512" style="enable-background:new 0 0 512 512;" xml:space="preserve">
<style type="text/css">
	.st0{fill:none;stroke:#000001;stroke-miterlimit:10;}
	.st1{fill:none;stroke:#010102;stroke-miterlimit:10;}
	.st2{fill:#F7F9FB;}
	.st3{fill:#010102;}
	.st4{fill:#FFFFFF;}
	.st5{fill:#474747;}
	.st6{fill-rule:evenodd;clip-rule:evenodd;}
	.st7{fill:#000001;}
	.st8{fill:#010101;}
	.st9{fill:#FD8274;}
	.st10{fill:#1A2DD8;}
	.st11{fill:#FFFFFF;stroke:#1A2DD8;stroke-miterlimit:10;}
	.st12{fill:#FD8274;stroke:#FD8274;stroke-miterlimit:10;}
	.st13{fill:#FD8274;stroke:#000000;stroke-width:8;stroke-linejoin:round;stroke-miterlimit:10;}
	.st14{fill-rule:evenodd;clip-rule:evenodd;fill:#1A2DD8;}
	.st15{fill-rule:evenodd;clip-rule:evenodd;fill:#FD8274;}
	.st16{fill:none;stroke:#000000;stroke-width:8;stroke-miterlimit:10;}
</style>
<path d="M325.14,446c-21.05-0.34-44.62-6.97-68.12-19.17c-74.54-38.71-132.19-95.91-171.33-170.01
	c-13.89-26.3-20.24-50.71-19.4-74.63c0.69-19.74,7.55-36.41,20.4-49.54c8.46-8.65,17.58-17.9,26.91-26.95
	c6.46-6.26,14.68-9.71,23.15-9.71c10.37,0,20.02,5.08,26.47,13.95c12.82,17.61,25.32,34.95,37.14,51.55
	c10.43,14.64,9.04,31.11-3.71,44.05c-1.75,1.77-3.49,3.56-5.23,5.34c-6.12,6.27-12.45,12.76-19.02,18.7
	c-5.65,5.11-6.79,10.65-3.69,17.95c8.7,20.5,21.34,38.71,38.64,55.65c16.68,16.33,36.25,29.22,59.81,39.38
	c1.79,0.77,3.44,1.15,5.04,1.15c2.93,0,5.59-1.26,8.12-3.84c8.99-9.16,17.29-17.47,25.37-25.38c7.69-7.53,15.89-11.35,24.36-11.35
	c7.82,0,15.63,3.27,23.2,9.71c13.86,11.79,32.14,27.31,50.68,42.81c7.04,5.89,11.23,14.11,11.78,23.15
	c0.55,8.93-2.55,17.5-8.74,24.11c-7.37,7.88-14.97,15.46-22.6,22.51C369.2,439.46,350.39,446,325.19,446H325.14z M108.01,124.02
	c-1.16,1.3-2.25,2.59-3.3,3.84c-2.16,2.57-4.21,4.99-6.49,7.06c-17.5,15.86-24.47,36.44-21.31,62.93c2.51,21.06,10,42.29,22.9,64.92
	c33.1,58.04,79.55,105.97,138.08,142.46c28.15,17.55,53.32,27.12,79.22,30.11c4.03,0.47,7.99,0.7,11.77,0.7
	c24.17,0,43.36-9.21,58.66-28.17l1.24-1.53l-1.51-1.26c-0.52-0.43-0.98-0.83-1.41-1.2c-0.87-0.75-1.63-1.39-2.45-2.01
	c-25.06-18.79-50.12-37.57-75.2-56.33c-4.96-3.71-7.68-5.75-10.6-5.75c-3.25,0-5.67,2.41-10.48,7.21c-4.6,4.58-9.29,6.8-14.37,6.8
	c-2.88,0-5.88-0.68-9.18-2.09c-28.51-12.16-52.82-29.34-72.25-51.08c-15.92-17.8-26.81-35.46-33.3-53.99
	c-2.91-8.32-1.21-15.39,5.2-21.64c0.61-0.6,1.2-1.23,1.78-1.86c1.04-1.12,2.03-2.18,3.13-3c5.42-4.02,3.58-8.21,1.37-11.42
	c-12.9-18.73-25.91-37.85-38.49-56.34c-5.44-8-10.88-16-16.34-23.99c-0.57-0.84-1.23-1.58-2.07-2.53c-0.45-0.51-0.98-1.1-1.6-1.83
	l-1.49-1.75L108.01,124.02z M329.09,313.27c-9.14,0-14.74,6.09-20.15,11.97c-0.88,0.96-1.77,1.92-2.67,2.86l-1.15,1.2l0.96,1.35
	c0.22,0.31,0.38,0.57,0.53,0.79c0.34,0.53,0.65,1.03,1.21,1.44c10.08,7.57,20.17,15.13,30.25,22.69
	c18.17,13.62,36.34,27.24,54.49,40.89c1.26,0.94,2.43,1.4,3.6,1.4c0,0,0,0,0,0c2.04,0,3.47-1.38,4.6-2.73
	c7.86-9.38,6.58-23.55-2.85-31.59l-0.63-0.53c-17.43-14.85-35.44-30.2-53.48-44.93c-3.01-2.46-7.73-4.22-12.61-4.7
	C330.48,313.3,329.78,313.27,329.09,313.27z M136.52,105.98c-7.18,0-13.64,3.52-17.3,9.41l-0.69,1.1l63.41,93.15l1.65-2.45
	c0.77-1.14,1.43-2.21,2.01-3.15c1.12-1.82,2.01-3.25,3.12-4.39c10.86-11.19,11.58-21.38,2.4-34.07
	c-3.99-5.51-7.95-11.04-11.91-16.57c-2.8-3.9-5.6-7.81-8.4-11.71c-1.54-2.14-3.07-4.29-4.59-6.45c-3.75-5.29-7.63-10.76-11.7-15.98
	C150.1,109.22,143.54,105.98,136.52,105.98z M271.6,198.08c-0.49,0-0.99-0.09-1.46-0.27c-1.09-0.43-1.94-1.31-2.32-2.41
	c-2.8-8.03-4.22-16.42-4.22-24.94c0-41.77,33.98-75.74,75.74-75.74c24,0,46.07,11.01,60.53,30.22c0.7,0.93,0.96,2.13,0.71,3.27
	s-0.99,2.12-2.02,2.67l-125.08,66.74C272.9,197.92,272.25,198.08,271.6,198.08z M339.35,102.72c-37.35,0-67.74,30.39-67.74,67.74
	c0,6.04,0.8,12.01,2.38,17.81l116.55-62.19C377.65,111.18,359.25,102.72,339.35,102.72z M339.35,246.21
	c-22.16,0-43.14-9.68-57.57-26.55c-0.79-0.92-1.12-2.15-0.89-3.34c0.23-1.19,0.98-2.22,2.05-2.79l123.61-65.95
	c1.07-0.57,2.34-0.63,3.46-0.15c1.11,0.48,1.95,1.43,2.28,2.6c1.87,6.67,2.81,13.55,2.81,20.44
	C415.09,212.23,381.12,246.21,339.35,246.21z M291.26,218.15c12.69,12.8,29.95,20.05,48.09,20.05c37.35,0,67.74-30.39,67.74-67.75
	c0-4.49-0.45-8.98-1.34-13.4L291.26,218.15z M236.64,152.3c-2.7,15.87-1.31,30.77,0.12,39.75c6.99,35.51,27.6,61.32,61.35,76.76
	c13.22,6.05,27.29,9.11,41.82,9.11c24.82,0,49.2-8.98,68.65-25.27c20-16.76,32.86-39.92,36.21-65.21c0.08-0.63,0.19-1.25,0.32-1.85
	c1.54-13.29,0.05-25.64-0.25-27.92c-1.16-6.8-2.89-13.88-5.27-21.51c0,0-0.08-0.17-0.5-0.47c-0.66-0.47-1.45-0.72-2.27-0.72
	c-1.67,0-3.21,0.98-3.92,2.5c-0.38,0.8-0.67,1.52-0.9,2.2c0.02,0.26,0.27,0.88,0.45,1.3c0.27,0.67,0.58,1.43,0.72,2.24
	c0.42,2.52,0.94,5.1,1.43,7.59c1.18,5.91,2.39,12.03,2.58,18.15c0.82,26.62-8.83,51.7-27.16,70.61
	C391.6,258.55,366.92,269,340.51,269c-5.8,0-11.67-0.52-17.46-1.55c-53.28-9.47-87.48-59.9-77.87-114.81
	c7.79-44.52,49.11-78.08,96.12-78.08c13.01,0,25.51,2.68,37.13,7.96c17.21,7.82,30.81,18.84,41.57,33.7c1,1.38,2.56,3.02,4.34,3.02
	c0.79,0,1.65-0.32,2.54-0.96c1.58-1.14,3.03-2.72,0.05-7.2C408.71,83.69,374.46,66,339.67,66c-7.61,0-15.06,0.87-22.15,2.58
	C274.64,78.95,244.99,109.92,236.64,152.3z"/>
</svg>
