<?xml version="1.0" encoding="utf-8"?>
<!-- Generator: Adobe Illustrator 24.0.1, SVG Export Plug-In . SVG Version: 6.00 Build 0)  -->
<svg version="1.1" id="Layer_1" xmlns="http://www.w3.org/2000/svg" xmlns:xlink="http://www.w3.org/1999/xlink" x="0px" y="0px"
	 viewBox="0 0 512 512" style="enable-background:new 0 0 512 512;" xml:space="preserve">
<style type="text/css">
	.st0{fill:none;stroke:#000001;stroke-miterlimit:10;}
	.st1{fill:none;stroke:#010102;stroke-miterlimit:10;}
	.st2{fill:#F7F9FB;}
	.st3{fill:#010102;}
	.st4{fill:#FFFFFF;}
	.st5{fill:#474747;}
	.st6{fill-rule:evenodd;clip-rule:evenodd;}
	.st7{fill:#000001;}
	.st8{fill:#010101;}
	.st9{fill:#FD8274;}
	.st10{fill:#1A2DD8;}
	.st11{fill:#FFFFFF;stroke:#1A2DD8;stroke-miterlimit:10;}
	.st12{fill:#FD8274;stroke:#FD8274;stroke-miterlimit:10;}
	.st13{fill:#FD8274;stroke:#000000;stroke-width:8;stroke-linejoin:round;stroke-miterlimit:10;}
	.st14{fill-rule:evenodd;clip-rule:evenodd;fill:#1A2DD8;}
	.st15{fill-rule:evenodd;clip-rule:evenodd;fill:#FD8274;}
	.st16{fill:none;stroke:#000000;stroke-width:8;stroke-miterlimit:10;}
</style>
<path d="M358.74,472.74c-0.49,0-0.97-0.14-1.39-0.4l-33.4-20.81c-31.01-20.04-49.55-53.01-49.55-88.19v-81.12
	c0-0.89,0.45-1.71,1.19-2.2c0.43-0.28,0.92-0.43,1.43-0.43c0.37,0,0.72,0.07,1.06,0.22l16.18,7.11c7.6,2.96,15.65,4.47,23.9,4.47
	c8.53,0,16.79-1.59,24.55-4.72l0.1-0.04l14.84-6.8c0.35-0.16,0.71-0.24,1.09-0.24c0.37,0,0.72,0.07,1.05,0.22l16.27,7.13
	c7.59,2.95,15.61,4.45,23.85,4.45c8.55,0,16.83-1.6,24.61-4.74l0.1-0.04l14.75-6.78c0.35-0.16,0.72-0.24,1.1-0.24
	c0.5,0,0.99,0.14,1.42,0.41c0.76,0.49,1.21,1.31,1.21,2.21v81.12c0,35.18-18.51,68.14-49.51,88.17l-33.44,20.83
	C359.71,472.6,359.23,472.74,358.74,472.74z M282.36,363.78c0,32.23,16.99,62.45,45.45,80.86l30.94,19.27l30.88-19.23
	c28.51-18.44,45.51-48.68,45.51-80.9v-74.39l-10.8,4.96c-8.04,3.27-16.97,5-25.83,5c-8.65,0-17.04-1.56-24.93-4.65l-14.81-6.49
	l-13.35,6.12l-0.15,0.06c-8.09,3.29-16.75,4.96-25.72,4.96c-8.67,0-17.08-1.57-24.99-4.67l-0.13-0.06l-12.07-5.31V363.78z
	 M363.24,429.53h-11.69c-9.19,0-16.66-7.47-16.66-16.66v-23h-24.2c-9.19,0-16.66-7.47-16.66-16.66v-9.77
	c0-9.19,7.47-16.66,16.66-16.66h24.2v-23c0-9.19,7.47-16.66,16.66-16.66h11.69c9.19,0,16.66,7.47,16.66,16.66v23h23.96
	c9.19,0,16.66,7.47,16.66,16.66v9.77c0,9.19-7.47,16.66-16.66,16.66h-23.96v23C379.91,422.06,372.43,429.53,363.24,429.53z
	 M310.68,354.77c-4.78,0-8.66,3.89-8.66,8.66v9.77c0,4.78,3.89,8.66,8.66,8.66h32.2v31c0,4.78,3.89,8.66,8.66,8.66h11.69
	c4.78,0,8.66-3.89,8.66-8.66v-31h31.96c4.78,0,8.66-3.89,8.66-8.66v-9.77c0-4.78-3.89-8.66-8.66-8.66h-31.96v-31
	c0-4.78-3.89-8.66-8.66-8.66h-11.69c-4.78,0-8.66,3.89-8.66,8.66v31H310.68z M270.75,395.94c-4.08-0.03-8.43-0.04-13.2-0.04
	c-6.26,0-12.51,0.02-18.77,0.05l-13.05,0.04c-1.57,0-2.95-0.08-3.9-1.03c-0.45-0.45-1.05-1.3-1.05-3.39
	c0.07-30.42,0.07-60.3,0.06-91.94l0-27.81l1.1,0.79c2.75,1.98,5.3,2.94,7.78,2.94c3.24,0,6.28-1.53,10.49-5.29
	c3.15-2.82,6.48-5.53,9.75-8.18c3.18-2.59,6.46-5.26,9.56-8.02c1.66-1.48,3.25-2.17,5-2.17c1.13,0,2.39,0.29,3.95,0.92
	c5.65,2.27,11.45,4.47,17.12,6.62c7.18,2.73,14.61,5.55,21.82,8.55c7.58,3.15,13.6,7.7,17.95,13.48c3.38-0.53,6.71-1.3,9.97-2.31
	c-5.44-8.75-13.65-15.43-24.63-19.93c-15.16-6.22-30.73-12.13-45.9-17.88c-6.07-2.3-12.13-4.6-18.18-6.93
	c-3.81-1.46-6.53-4.88-7.29-9.13c-0.78-4.37,0.68-8.65,3.89-11.46c9.49-8.3,15.6-18.6,18.14-30.62c0.75-3.53,1.84-5.37,6.06-6.28
	c8.64-1.88,15.42-7.98,18.14-16.31c2.57-7.87,0.95-15.87-4.45-21.95c-4.84-5.45-4.69-10.18-2.97-15.6c1.68-5.3,3.63-9.47,6.13-13.11
	c7.98-11.6,7.53-17.64-2.09-28.06c-1.45-1.57-3.05-3.2-5.2-5.29c-0.7-0.68-1.48-1.29-2.32-1.96c-3.47-2.73-5.85-5.02-4.91-9.6
	l0.29-1.41l-0.86-1.15c-0.41-0.55-1.05-1.27-1.44-1.71l-0.18-0.2c-2.97-3.35-6.65-6.32-10.94-8.84
	c-14.07-8.25-28.99-12.44-44.33-12.44c-5.94,0-12.05,0.63-18.15,1.87c-22.63,4.61-35.77,14.09-42.6,30.73
	c-0.6,1.46-1.6,2.35-3.23,2.89c-13.48,4.4-18.53,10.98-19.29,25.15c-0.57,10.66,1.71,21.03,4.01,29.78c0.7,2.66,0.74,4.83-1.24,7.4
	c-5.85,7.63-7.6,16.48-4.82,24.28c2.79,7.82,9.77,13.57,19.15,15.79c2.07,0.49,3.97,1.16,4.44,3.95
	c2.26,13.35,8.78,24.44,19.93,33.91c2.3,1.95,3.25,5.62,2.55,9.81c-0.71,4.23-2.97,7.67-5.78,8.76c-6.98,2.73-13.97,5.44-21.08,8.2
	c-14.27,5.53-29.02,11.26-43.45,17.06c-20.67,8.31-32.11,23.76-33.07,44.67c-1.02,22.13-0.78,44.7-0.55,66.53
	c0.08,7.26,0.16,14.53,0.19,21.79c0.03,7.2,6.07,13.35,13.17,13.41c9.8,0.09,19.56,0.11,26.97,0.11l23.01-0.01
	c3.62,0,7.24,0,10.88,0.01c3.47,0,5.26-1.57,5.33-4.66c0.03-1.39-0.34-2.48-1.09-3.26c-0.89-0.92-2.36-1.41-4.26-1.43
	c-1.32-0.02-2.64-0.05-3.96-0.08c-1.74-0.04-3.47-0.09-5.2-0.09c-2.18,0-3.98,0.07-5.68,0.21c-0.46,0.04-0.89,0.06-1.29,0.06
	c-2.41,0-3.42-0.74-3.97-1.29c-1.05-1.06-1.48-2.7-1.46-5.65c0.14-21.48,0.12-43.32,0.1-64.44l-0.02-19.91
	c0-3.4-0.37-4.98-1.41-6.03l-0.18-0.18l-0.21-0.15c-0.7-0.51-1.65-0.77-2.95-0.78c-1.42,0-2.47,0.34-3.19,1.02
	c-1.08,1.02-1.52,2.75-1.51,5.96c0.01,3.18,0.01,6.36,0,9.57c-0.01,5.7-0.02,11.6,0.07,17.4c0.03,2.03-0.29,3.23-1.07,4.02
	c-0.46,0.46-1.31,1.08-3.42,1.08l-0.34,0c-3.61-0.1-7.39-0.15-11.55-0.15c-3.82,0-7.86,0.04-13.07,0.13l-0.22,0
	c-0.61,0-2.24,0-3.24-1.02c-1-1.03-0.97-2.69-0.96-3.32c0.07-3.38,0.04-6.81,0.02-10.14c-0.05-6.29-0.1-12.8,0.5-19.15
	c1.54-16.36,10.55-28.49,26.05-35.08c7.77-3.3,15.78-6.37,23.6-9.37c5.21-2,10.6-4.06,15.85-6.17c1.23-0.49,2.32-0.74,3.31-0.74
	c1.61,0,3.09,0.63,4.65,1.98c2.91,2.52,5.95,5,8.96,7.47c3.58,2.93,7.28,5.96,10.83,9.1c3.07,2.72,6.73,5.51,10.62,5.51
	c2.18,0,4.34-0.83,6.59-2.53l0.6-0.45l0.41,0.63c0.17,0.27,0.33,0.48,0.47,0.66c0.31,0.41,0.5,0.69,0.5,1.08l0.07,46.86
	c0.03,23.21,0.06,46.41,0.11,69.62c0,0.63,0,2.31-1.04,3.35c-0.44,0.44-1.24,1.02-3.15,1.02l-0.26,0c-2.28-0.05-4.56-0.06-6.84-0.06
	c-3.45,0-6.9,0.04-10.36,0.08c-4.46,0.05-5.17,2.67-5.2,4.22c-0.03,1.65,0.34,2.84,1.16,3.68c1,1,2.68,1.46,5.31,1.46
	c4.61-0.02,9.23-0.04,13.85-0.05c5.41-0.01,10.8-0.02,16.18-0.02l72.79,0.02C272.93,402.26,271.77,399.12,270.75,395.94z
	 M79.59,347.1c0.42-0.42,1.2-0.99,3.27-0.99c0,0,0.01,0,0.01,0c4.82,0.07,9.09,0.11,13.05,0.11c4.32,0,8.29-0.04,12.11-0.12l0.25,0
	c1.96,0,2.76,0.58,3.19,1.02c0.76,0.77,1.04,1.85,1,3.85c-0.09,4.75-0.07,9.59-0.06,14.33l0.02,5.7c0,1.96-0.01,3.92-0.02,5.88
	c-0.03,4.64-0.05,9.43,0.08,14.15c0.05,1.89-0.27,3.1-1.06,3.9c-1.09,1.12-2.86,1.12-3.53,1.12l-0.36-0.01
	c-3.35-0.09-6.96-0.14-11.05-0.14c-3.76,0-7.51,0.04-11.26,0.08l-0.19,0c-2.17,0-3.8-0.53-4.85-1.59c-1.06-1.06-1.58-2.72-1.57-4.92
	c0.08-12.9,0.07-26-0.03-38.94C78.58,348.87,78.89,347.81,79.59,347.1z M241.48,242.39c2.69,1.05,5.47,2.14,8.18,3.26
	c1.11,0.46,1.73,1.05,1.84,1.76c0.14,0.89-0.47,1.59-1.76,2.67c-2.54,2.13-5.1,4.25-7.74,6.44l-0.23,0.19
	c-3.06,2.54-6.12,5.07-9.16,7.64c-1.1,0.93-1.82,1.04-2.26,1.04c-1.18,0-2.06-0.96-2.89-1.99c-7.31-9.11-7.26-9.59,1.85-17.01
	c0.56-0.45,1.13-0.99,1.76-1.57c1.81-1.7,3.67-3.45,6.46-3.89l0.19-0.03L241.48,242.39z M277.21,152.37
	c0.36,6.3-3.47,12.34-9.3,14.7c-1.08,0.44-1.91,0.64-2.62,0.64c-0.75,0-1.33-0.23-1.77-0.7c-0.65-0.69-0.9-1.87-0.79-3.71
	c0.14-2.36,0.11-4.65,0.07-7.09c-0.01-1.05-0.03-2.1-0.03-3.15l0-3.21c0-2.55,0.01-5.09-0.01-7.64c-0.01-1.06,0.04-2.14,0.72-2.83
	c0.38-0.38,0.87-0.56,1.52-0.56c0.45,0,0.98,0.09,1.61,0.29C272.13,140.81,276.89,146.76,277.21,152.37z M148.91,167.12
	c-0.41,0.43-0.94,0.64-1.63,0.64c-0.66,0-1.51-0.21-2.65-0.65c-5.96-2.32-9.58-7.88-9.44-14.5c0.13-6.23,4.07-11.75,9.8-13.72
	c0.92-0.32,1.62-0.46,2.22-0.46c0.72,0,1.28,0.21,1.7,0.66c0.86,0.9,0.77,2.58,0.75,3.13c-0.12,2.49-0.1,4.92-0.07,7.55
	c0.01,1.09,0.03,2.18,0.03,3.27c0,1.11-0.01,2.23-0.03,3.4c-0.03,2.55-0.06,4.96,0.07,7.42
	C149.74,165.48,149.51,166.49,148.91,167.12z M149.78,125.75c-0.31,2.1-1.42,2.71-3.45,3.13c-0.25,0.05-0.5,0.1-0.73,0.17
	c-0.35,0.1-0.69,0.15-1,0.15c-1.37,0-2.21-0.85-2.65-2.67l-0.26-1.07c-2.37-9.79-4.82-19.91-2.54-30.35
	c1.59-7.28,5.43-10.89,12.09-11.38c4.21-0.31,7.19-2.6,8.37-6.45c3.02-9.85,9.88-16.94,21.59-22.31c8.34-3.82,17.73-5.81,28.69-6.07
	c0.65-0.01,1.3-0.02,1.95-0.02c14.49,0,27.95,3.63,40.03,10.8c1.48,0.88,2.46,1.54,2.73,2.68c0.21,0.94-0.11,1.99-1.06,3.43
	c-1.38,2.08-1.32,3.68-1.03,4.66c0.48,1.6,1.93,2.96,4.21,3.94c7.73,3.33,14.66,8.81,21.17,16.78c3.09,3.78,3.28,7.18,0.6,10.73
	c-5.2,6.89-8.71,14.63-10.45,23c-0.04,0.2-0.07,0.41-0.11,0.72c-0.37,2.81-1.52,3.2-2.66,3.2l-0.19,0
	c-0.74-0.03-1.98-0.07-2.45-2.98c-0.03-0.22-0.07-0.44-0.12-0.65c-1.12-4.54-4.01-7.13-8.59-7.7c-3.62-0.45-5.38-2.3-5.88-6.18
	c-1.04-8.11-5.73-12.8-14.76-14.76c-9.03-1.96-18.16-2.96-27.13-2.96c-9.19,0-18.53,1.04-27.74,3.11
	c-8.57,1.92-13.2,6.73-14.12,14.72c-0.44,3.79-2.23,5.61-5.98,6.08C153.43,118.11,150.49,120.96,149.78,125.75z M159.41,175.09
	c-0.49-9.42-0.43-19-0.37-28.27c0.03-5.21,0.07-10.59,0.01-15.88c-0.04-3.05,1.61-4.16,4.09-4.9c6.13-1.82,9.69-6.22,10.29-12.73
	c0.49-5.34,4.05-6.85,7.46-7.63c8.36-1.9,16.85-2.87,25.22-2.87c8.31,0,16.75,0.95,25.09,2.82c5.12,1.15,7.36,3.48,7.72,8.03
	c0.5,6.23,4.05,10.58,10,12.25c3.2,0.9,4.4,2.54,4.3,5.87c-0.15,5.23-0.13,10.33-0.1,16.27c0.01,2.45,0.03,5,0.02,7.75
	c-0.21,2.78-0.14,5.77-0.06,8.93c0.14,5.77,0.3,12.31-1.39,18.66c-5.46,20.55-23.96,34.36-46.02,34.36c-1.61,0-3.25-0.08-4.88-0.22
	C178.36,215.5,160.56,197.25,159.41,175.09z M191.03,254.54c-0.63,0.89-1.26,1.8-2,2.88c-1.76,2.55-3.59,5.19-5.59,7.66
	c-0.29,0.36-0.7,0.56-1.13,0.56c-0.83,0-1.61-0.7-2.29-1.31l-0.37-0.32c-2.36-1.93-4.7-3.87-7.2-5.93l-0.19-0.16
	c-3.11-2.57-6.22-5.14-9.36-7.69c-0.93-0.76-1.98-1.78-1.8-2.99c0.05-0.33,0.21-1.31,2.39-2.17c0.61-0.24,1.2-0.41,1.74-0.57
	l0.48-0.15c1.08-0.33,2.24-0.95,3.36-1.56c1.74-0.94,3.53-1.9,5.26-1.9c0.68,0,1.32,0.15,1.9,0.45c3.64,1.85,6.83,4.64,9.93,7.35
	c1.26,1.1,2.45,2.14,3.67,3.13c0.37,0.3,0.58,0.71,0.84,1.24c0.11,0.21,0.23,0.45,0.38,0.71l0.23,0.39L191.03,254.54z M211.4,314.21
	l0,30.51c-0.01,14.89-0.01,30.29,0.05,45.43c0.01,2.14-0.07,3.73-1.14,4.81c-0.5,0.5-1.45,1.18-3.96,1.18
	c-4.47-0.04-5.29-1.99-5.28-5.83c0.09-35.45,0.09-73.09,0.03-122.03c0-2.24,0.08-3.79,1.16-4.88c0.29-0.29,1.19-1.19,3.92-1.19V259
	l0.02,3.21c2.86,0,3.78,0.93,4.08,1.23c1.01,1.02,1.2,2.49,1.19,4.68C211.38,283.48,211.39,299.1,211.4,314.21z M211.54,251.5
	c-0.58,1.37-3.11,1.85-5.28,1.85c-2.18,0-4.72-0.49-5.3-1.86c-2.02-4.79-5.97-7.81-9.8-10.72c-1.9-1.45-3.87-2.95-5.67-4.73
	c-0.13-0.12-0.56-0.45-0.85-0.66c-0.87-0.62-1.5-1.11-1.72-1.88c-1.21-4.18-1.14-7.27,0.23-9.43c0.39-0.62,0.99-0.95,1.72-0.95
	c0.93,0,2,0.55,2.97,1.06c0.83,0.43,1.25,0.63,1.69,0.76c5.73,1.65,11.43,2.49,16.93,2.49c5.96,0,11.87-0.98,17.56-2.92
	c1.64-0.56,2.76-0.81,3.63-0.81c0.91,0,1.57,0.27,2.03,0.83c0.63,0.77,0.77,1.98,0.46,3.83l-0.07,0.44l0.05,0.44
	c0.36,3.29-1.28,5.3-3.1,6.98c-1.64,1.51-3.44,2.86-5.18,4.17C217.82,243.4,213.67,246.52,211.54,251.5z M358.74,472.74
	c-0.49,0-0.97-0.14-1.39-0.4l-33.4-20.81c-31.01-20.04-49.55-53.01-49.55-88.19v-81.12c0-0.89,0.45-1.71,1.19-2.2
	c0.43-0.28,0.92-0.43,1.43-0.43c0.37,0,0.72,0.07,1.06,0.22l16.18,7.11c7.6,2.96,15.65,4.47,23.9,4.47c8.53,0,16.79-1.59,24.55-4.72
	l0.1-0.04l14.84-6.8c0.35-0.16,0.71-0.24,1.09-0.24c0.37,0,0.72,0.07,1.05,0.22l16.27,7.13c7.59,2.95,15.61,4.45,23.85,4.45
	c8.55,0,16.83-1.6,24.61-4.74l0.1-0.04l14.75-6.78c0.35-0.16,0.72-0.24,1.1-0.24c0.5,0,0.99,0.14,1.42,0.41
	c0.76,0.49,1.21,1.31,1.21,2.21v81.12c0,35.18-18.51,68.14-49.51,88.17l-33.44,20.83C359.71,472.6,359.23,472.74,358.74,472.74z
	 M282.36,363.78c0,32.23,16.99,62.45,45.45,80.86l30.94,19.27l30.88-19.23c28.51-18.44,45.51-48.68,45.51-80.9v-74.39l-10.8,4.96
	c-8.04,3.27-16.97,5-25.83,5c-8.65,0-17.04-1.56-24.93-4.65l-14.81-6.49l-13.35,6.12l-0.15,0.06c-8.09,3.29-16.75,4.96-25.72,4.96
	c-8.67,0-17.08-1.57-24.99-4.67l-0.13-0.06l-12.07-5.31V363.78z"/>
</svg>
