<?xml version="1.0" encoding="utf-8"?>
<!-- Generator: Adobe Illustrator 24.0.1, SVG Export Plug-In . SVG Version: 6.00 Build 0)  -->
<svg version="1.1" id="Layer_1" xmlns="http://www.w3.org/2000/svg" xmlns:xlink="http://www.w3.org/1999/xlink" x="0px" y="0px"
	 viewBox="0 0 512 512" style="enable-background:new 0 0 512 512;" xml:space="preserve">
<style type="text/css">
	.st0{fill:none;stroke:#000001;stroke-miterlimit:10;}
	.st1{fill:none;stroke:#010102;stroke-miterlimit:10;}
	.st2{fill:#F7F9FB;}
	.st3{fill:#010102;}
	.st4{fill:#FFFFFF;}
	.st5{fill:#474747;}
	.st6{fill-rule:evenodd;clip-rule:evenodd;}
	.st7{fill:#000001;}
	.st8{fill:#010101;}
	.st9{fill:#FD8274;}
	.st10{fill:#1A2DD8;}
	.st11{fill:#FFFFFF;stroke:#1A2DD8;stroke-miterlimit:10;}
	.st12{fill:#FD8274;stroke:#FD8274;stroke-miterlimit:10;}
	.st13{fill:#FD8274;stroke:#000000;stroke-width:8;stroke-linejoin:round;stroke-miterlimit:10;}
	.st14{fill-rule:evenodd;clip-rule:evenodd;fill:#1A2DD8;}
	.st15{fill-rule:evenodd;clip-rule:evenodd;fill:#FD8274;}
	.st16{fill:none;stroke:#000000;stroke-width:8;stroke-miterlimit:10;}
</style>
<path d="M294.97,415.89l-216.73,0.58l-22.68-0.59l23.82-84.18c7.23-12.91,20.85-20.92,35.67-20.95l32.32-0.06
	c0.15,0.27,0.31,0.53,0.53,0.77c3.6,4.03,20.21,15.46,43.91,15.46c14.14,0,30.82-4.09,48.75-16.22l24.54,0.04l3-8l-25.75-0.04
	c-0.18-0.11-0.37-0.2-0.55-0.28l-2.94-35.75c7.44-6.22,11.41-13.14,14.72-18.78c0.82-1.4,1.66-2.84,2.5-4.16
	c4.09-6.46,7.74-11.05,17.61-11.38c9.63-0.32,18.49-5.42,23.71-13.64c4.6-7.26,5.42-15.64,2.25-22.99
	c-4.57-10.61-3.77-19.44-0.98-30.26c6.02-23.4,2.18-47.15-10.81-66.87c-13.46-20.43-33.36-34.06-58.55-38.64
	c-12.96-2.36-25.92-3.53-41.24-3.53c-41.63,0-67.97,13.77-84.69,37.99c-17.45,22.9-21.43,48.97-12.15,79.69
	c1.52,5.02,1.13,11.22-0.96,15.42c-4.92,9.91-4.87,20.39,0.14,28.74c5.26,8.77,15.15,14,27.14,14.35c6.47,0.19,10.31,2.65,12.82,8.2
	c4.6,10.17,12.05,19.61,21.4,26.83l-5.43,35.07l-31.29,0.06c-17.88,0.03-34.32,9.8-42.89,25.5c-0.14,0.26-0.26,0.54-0.34,0.83
	l-25.35,89.58c-0.34,1.19-0.1,2.47,0.63,3.46c0.73,0.99,1.88,1.6,3.12,1.63l27.85,0.72l226.18-0.45
	C302.03,421.39,296.95,418.67,294.97,415.89z M153.88,306.15l5.2-33.58c3.58,2.11,7.35,3.92,11.29,5.33
	c4.01,1.23,10.42,2.16,15.55,2.75c2.98,0.53,5.89,0.86,8.58,0.86c1.62,0,3.3-0.1,5.02-0.28c6.34-0.44,12.47-1.59,17.99-3.33
	c4.35-1.38,8.15-2.96,11.48-4.7c0.81-0.32,1.59-0.63,2.29-0.92l2.73,33.18C192.32,332.19,158.58,311.36,153.88,306.15z
	 M272.12,223.75c-1.83,0-3.75-0.2-5.71-0.6l-3.57-0.73l3.01-38.78l3.88,0.06c15.7,0.24,22.77,10.79,22.7,20.49
	C292.36,213.67,285.22,223.75,272.12,223.75z M121.56,222.97c-1.95,0.4-3.87,0.6-5.71,0.6c-13.1,0-20.24-10.08-20.31-19.57
	c-0.07-9.7,7-20.25,22.7-20.49l3.88-0.06l3.01,38.78L121.56,222.97z M120.74,169.68l0.53,3.97l-17.74,2.93l-1.41-2.57
	c-10.8-19.8-9.53-44.64,3.42-66.45c14.62-24.63,40.1-37.02,66.6-39.93c0.61-0.07,11.2-1.8,23.22-1.46
	c36.8,1.04,68.43,13.4,84.57,35.85c13.69,19.04,16.02,43.71,6.74,71.34l-1.11,3.3l-19.57-3.05l10.27-31.29h-8.93
	c-0.35,5.64-2.58,10.93-6.5,15.35c-4.99,5.63-12.2,8.99-19.28,8.99c-6.19,0-11.83-2.42-16.27-6.99c-3.11-3-5.8-6.32-8.41-9.52
	c-1.11-1.37-2.23-2.74-3.4-4.12l-0.15-0.2c-9.29-12.63-26.89-20.48-45.93-20.48c-16.04,0-30.56,5.66-38.85,15.13
	C121.8,148.19,119.17,158.01,120.74,169.68z M134.45,222.62c-1.36-12.55-2.24-25.27-3.09-37.57c-0.49-7.13-1.01-14.5-1.61-21.8
	l-0.02-0.25l0-0.14c0.2-17.78,14.38-29.28,36.11-29.28c16.87,0,33.21,7.18,40.65,17.84c10.43,14.12,20.65,23.53,36.59,23.53
	c2.76,0,5.69-0.29,8.72-0.87l5.38-1.02l-0.5,5.46c-0.54,5.86-0.75,11.77-0.95,17.48c-0.54,15.37-1.29,28.79-7.61,43.01
	c-8.82,20.8-28.51,32.99-53.02,32.99C166.96,272.01,137.1,255.9,134.45,222.62z M362.59,246.03c-51.41,0.04-93,41.84-93,93.48
	c-0.01,50.83,41.99,92.75,92.9,92.72c51.56-0.03,93.35-41.77,93.3-93.19C455.72,287.74,413.9,246,362.59,246.03z M362.54,424.27
	c-47-0.04-85.1-38.41-84.99-85.58c0.12-46.79,38.56-84.83,85.58-84.69c46.68,0.14,84.73,38.46,84.68,85.28
	C447.76,386.17,409.49,424.31,362.54,424.27z M363.04,412.12c-0.02,0-0.04,0-0.07,0c-19.67-0.02-38.17-7.72-52.1-21.69
	c-13.99-14.04-21.67-32.69-21.62-52.53c0.05-19.64,7.81-38.11,21.86-52.01c13.99-13.84,32.5-21.46,52.13-21.46c0.08,0,0.15,0,0.23,0
	c40.55,0.12,73.5,33.3,73.46,73.97l-4,0l4,0C436.89,379.06,403.74,412.12,363.04,412.12z M363.25,272.43
	c-17.52,0-34.02,6.79-46.5,19.14c-12.52,12.39-19.44,28.85-19.49,46.34c-0.04,17.69,6.81,34.33,19.29,46.86
	c12.41,12.46,28.91,19.32,46.44,19.34c0.02,0,0.04,0,0.06,0c36.3,0,65.86-29.47,65.9-65.73c0.04-36.26-29.34-65.85-65.48-65.96
	C363.38,272.43,363.31,272.43,363.25,272.43z M341.49,360.32c14.69-14.7,28.75-28.78,42.81-42.85c3.55-3.55,7.07-7.14,10.68-10.62
	c2.6-2.51,5.63-3.59,8.55-0.72c3.06,3,2.23,6.15-0.56,8.94c-19.01,19.04-38.02,38.07-57.07,57.08c-3.3,3.29-6.61,3.1-9.74-0.41
	c-5.85-6.56-11.75-13.07-17.58-19.65c-2.58-2.92-3.39-6.14-0.09-8.96c3.05-2.6,6.03-1.52,8.51,1.19
	C331.7,349.44,336.33,354.62,341.49,360.32z"/>
</svg>
