<?xml version="1.0" encoding="utf-8"?>
<!-- Generator: Adobe Illustrator 24.0.1, SVG Export Plug-In . SVG Version: 6.00 Build 0)  -->
<svg version="1.1" id="Layer_1" xmlns="http://www.w3.org/2000/svg" xmlns:xlink="http://www.w3.org/1999/xlink" x="0px" y="0px"
	 viewBox="0 0 512 512" style="enable-background:new 0 0 512 512;" xml:space="preserve">
<style type="text/css">
	.st0{fill:none;stroke:#000001;stroke-miterlimit:10;}
	.st1{fill:none;stroke:#010102;stroke-miterlimit:10;}
	.st2{fill:#F7F9FB;}
	.st3{fill:#010102;}
	.st4{fill:#FFFFFF;}
	.st5{fill:#474747;}
	.st6{fill-rule:evenodd;clip-rule:evenodd;}
	.st7{fill:#000001;}
	.st8{fill:#010101;}
	.st9{fill:#FD8274;}
	.st10{fill:#1A2DD8;}
	.st11{fill:#FFFFFF;stroke:#1A2DD8;stroke-miterlimit:10;}
	.st12{fill:#FD8274;stroke:#FD8274;stroke-miterlimit:10;}
	.st13{fill:#FD8274;stroke:#000000;stroke-width:8;stroke-linejoin:round;stroke-miterlimit:10;}
	.st14{fill-rule:evenodd;clip-rule:evenodd;fill:#1A2DD8;}
	.st15{fill-rule:evenodd;clip-rule:evenodd;fill:#FD8274;}
	.st16{fill:none;stroke:#000000;stroke-width:8;stroke-miterlimit:10;}
</style>
<path d="M384.75,457.37l-25.26-15.73c-23.08-14.93-36.86-39.45-36.86-65.6v-60.95l10.75,4.73c12.88,5.05,27.55,4.96,40.3-0.22
	l11.08-5.08l12.12,5.32c12.88,5.04,27.55,4.94,40.3-0.26l9.68-4.45v60.91c0,26.15-13.78,50.67-36.86,65.6L384.75,457.37z
	 M363.82,434.9l20.94,13.04l20.97-13.06c20.73-13.41,33.15-35.42,33.15-58.84v-48.53c-14.3,5.43-30.57,5.38-44.85-0.21
	c-0.13-0.05-0.25-0.1-0.37-0.15l-8.82-3.87l-7.76,3.56c-0.14,0.06-0.26,0.11-0.37,0.16c-14.59,5.93-31.37,6.05-46.06,0.33v48.71
	C330.64,399.45,343.04,421.46,363.82,434.9z M384.74,484.74c-0.49,0-0.97-0.14-1.39-0.4l-33.4-20.81
	c-31.01-20.04-49.55-53.01-49.55-88.19v-81.12c0-0.89,0.45-1.71,1.19-2.2c0.43-0.28,0.92-0.43,1.43-0.43c0.37,0,0.72,0.07,1.06,0.22
	l16.18,7.11c7.6,2.96,15.65,4.47,23.9,4.47c8.53,0,16.79-1.59,24.55-4.72l0.1-0.04l14.84-6.8c0.35-0.16,0.71-0.24,1.09-0.24
	c0.37,0,0.72,0.07,1.05,0.22l16.27,7.13c7.59,2.95,15.61,4.45,23.85,4.45c8.55,0,16.83-1.6,24.61-4.74l0.1-0.04l14.75-6.78
	c0.35-0.16,0.72-0.24,1.1-0.24c0.5,0,0.99,0.14,1.42,0.41c0.76,0.49,1.21,1.31,1.21,2.21v81.12c0,35.18-18.51,68.14-49.51,88.17
	l-33.44,20.83C385.71,484.6,385.23,484.74,384.74,484.74z M308.36,375.78c0,32.23,16.99,62.45,45.45,80.86l30.94,19.27l30.88-19.23
	c28.51-18.44,45.51-48.68,45.51-80.9v-74.39l-10.8,4.96c-8.04,3.27-16.97,5-25.83,5c-8.65,0-17.04-1.56-24.93-4.65l-14.81-6.49
	l-13.35,6.12l-0.15,0.06c-8.09,3.29-16.75,4.96-25.72,4.96c-8.67,0-17.08-1.57-24.99-4.67l-0.13-0.06l-12.07-5.31V375.78z
	 M183.17,336.49L183.17,336.49c2.59,0,4.7-2.11,4.7-4.7c0-2.36,0-4.72-0.01-7.06l-0.02-19.91c0-3.4-0.37-4.98-1.41-6.03l-0.18-0.18
	l-0.21-0.15c-0.7-0.51-1.65-0.77-2.95-0.78c-1.42,0-2.47,0.34-3.19,1.02c-1.08,1.02-1.52,2.75-1.51,5.96c0.01,3.18,0.01,6.36,0,9.57
	c-0.01,5.7-0.02,11.6,0.07,17.4c0,0.09,0,0.17,0,0.26C178.52,334.43,180.61,336.49,183.17,336.49z M295.53,395.98l-3.8,0.01
	c-1.57,0-2.95-0.08-3.9-1.03c-0.45-0.45-1.05-1.3-1.05-3.39c0.07-30.42,0.07-60.3,0.06-91.94l0-27.81l1.1,0.79
	c2.75,1.98,5.3,2.94,7.78,2.94c3.24,0,6.28-1.53,10.49-5.29c3.15-2.82,6.48-5.53,9.75-8.18c3.18-2.59,6.46-5.26,9.56-8.02
	c1.66-1.48,3.25-2.17,5-2.17c1.13,0,2.39,0.29,3.95,0.92c5.65,2.27,11.45,4.47,17.12,6.62c7.18,2.73,14.61,5.55,21.82,8.55
	c7.58,3.15,13.6,7.7,17.95,13.48c1.32,2.11,1.83,3.13,1.66,5.68c2.37,2.63,7.83,3.94,8.68,3.74c1.76-0.4,2.04-6.81-0.37-11.74
	c-5.44-8.75-13.65-15.43-24.63-19.93c-15.16-6.22-30.73-12.13-45.9-17.88c-6.07-2.3-12.13-4.6-18.18-6.93
	c-3.81-1.46-6.53-4.88-7.29-9.13c-0.78-4.37,0.68-8.65,3.89-11.46c9.49-8.3,15.6-18.6,18.14-30.62c0.75-3.53,1.84-5.37,6.06-6.28
	c8.64-1.88,15.42-7.98,18.14-16.31c2.57-7.87,0.95-15.87-4.45-21.95c-4.84-5.45-4.69-10.18-2.97-15.6c1.68-5.3,3.63-9.47,6.13-13.11
	c7.98-11.6,7.53-17.64-2.09-28.06c-1.45-1.57-3.05-3.2-5.2-5.29c-0.7-0.68-1.48-1.29-2.32-1.96c-3.47-2.73-5.85-5.02-4.91-9.6
	l0.29-1.41l-0.86-1.15c-0.41-0.55-1.05-1.27-1.44-1.71l-0.18-0.2c-2.97-3.35-6.65-6.32-10.94-8.84
	c-14.07-8.25-28.99-12.44-44.33-12.44c-5.94,0-12.05,0.63-18.15,1.87c-22.63,4.61-35.77,14.09-42.6,30.73
	c-0.6,1.46-1.6,2.35-3.23,2.89c-13.48,4.4-18.53,10.98-19.29,25.15c-0.57,10.66,1.71,21.03,4.01,29.78c0.7,2.66,0.74,4.83-1.24,7.4
	c-5.85,7.63-7.6,16.48-4.82,24.28c2.79,7.82,9.77,13.57,19.15,15.79c2.07,0.49,3.97,1.16,4.44,3.95
	c2.26,13.35,8.78,24.44,19.93,33.91c2.3,1.95,3.25,5.62,2.55,9.81c-0.71,4.23-2.97,7.67-5.78,8.76c-6.98,2.73-13.97,5.44-21.08,8.2
	c-14.27,5.53-29.02,11.26-43.45,17.06c-20.67,8.31-32.11,23.76-33.07,44.67c-0.07,1.54-0.13,3.09-0.19,4.64
	c-0.1,2.64,2,4.84,4.65,4.84c2.5,0,4.54-1.98,4.64-4.47c0.08-1.83,0.2-3.65,0.37-5.46c1.54-16.36,10.55-28.49,26.05-35.08
	c7.77-3.3,15.78-6.37,23.6-9.37c5.21-2,10.6-4.06,15.85-6.17c1.23-0.49,2.32-0.74,3.31-0.74c1.61,0,3.09,0.63,4.65,1.98
	c2.91,2.52,5.95,5,8.96,7.47c3.58,2.93,7.28,5.96,10.83,9.1c3.07,2.72,6.73,5.51,10.62,5.51c2.18,0,4.34-0.83,6.59-2.53l0.6-0.45
	l0.41,0.63c0.17,0.27,0.33,0.48,0.47,0.66c0.31,0.41,0.5,0.69,0.5,1.08l0.07,46.86c0.03,23.21,0.06,46.41,0.11,69.62
	c0,0.63,0,2.31-1.04,3.35c-0.44,0.44-1.24,1.02-3.15,1.02l-0.26,0c-2.28-0.05-4.56-0.06-6.84-0.06c-3.45,0-6.9,0.04-10.36,0.08
	c-4.46,0.05-5.17,2.67-5.2,4.22c-0.03,1.65,0.34,2.84,1.16,3.68c1,1,2.68,1.46,5.31,1.46c4.61-0.02,9.23-0.04,13.85-0.05
	c5.41-0.01,10.8-0.02,16.18-0.02l30.53,0.01C297.01,402.25,296.2,399.13,295.53,395.98z M307.48,242.39
	c2.69,1.05,5.47,2.14,8.18,3.26c1.11,0.46,1.73,1.05,1.84,1.76c0.14,0.89-0.47,1.59-1.76,2.67c-2.54,2.13-5.1,4.25-7.74,6.44
	l-0.23,0.19c-3.06,2.54-6.12,5.07-9.16,7.64c-1.1,0.93-1.82,1.04-2.26,1.04c-1.18,0-2.06-0.96-2.89-1.99
	c-7.31-9.11-7.26-9.59,1.85-17.01c0.56-0.45,1.13-0.99,1.76-1.57c1.81-1.7,3.67-3.45,6.46-3.89l0.19-0.03L307.48,242.39z
	 M343.21,152.37c0.36,6.3-3.47,12.34-9.3,14.7c-1.08,0.44-1.91,0.64-2.62,0.64c-0.75,0-1.33-0.23-1.77-0.7
	c-0.65-0.69-0.9-1.87-0.79-3.71c0.14-2.36,0.11-4.65,0.07-7.09c-0.01-1.05-0.03-2.1-0.03-3.15l0-3.21c0-2.55,0.01-5.09-0.01-7.64
	c-0.01-1.06,0.04-2.14,0.72-2.83c0.38-0.38,0.87-0.56,1.52-0.56c0.45,0,0.98,0.09,1.61,0.29
	C338.13,140.81,342.89,146.76,343.21,152.37z M214.91,167.12c-0.41,0.43-0.94,0.64-1.63,0.64c-0.66,0-1.51-0.21-2.65-0.65
	c-5.96-2.32-9.58-7.88-9.44-14.5c0.13-6.23,4.07-11.75,9.8-13.72c0.92-0.32,1.62-0.46,2.22-0.46c0.72,0,1.28,0.21,1.7,0.66
	c0.86,0.9,0.77,2.58,0.75,3.13c-0.12,2.49-0.1,4.92-0.07,7.55c0.01,1.09,0.03,2.18,0.03,3.27c0,1.11-0.01,2.23-0.03,3.4
	c-0.03,2.55-0.06,4.96,0.07,7.42C215.74,165.48,215.51,166.49,214.91,167.12z M215.78,125.75c-0.31,2.1-1.42,2.71-3.45,3.13
	c-0.25,0.05-0.5,0.1-0.73,0.17c-0.35,0.1-0.69,0.15-1,0.15c-1.37,0-2.21-0.85-2.65-2.67l-0.26-1.07
	c-2.37-9.79-4.82-19.91-2.54-30.35c1.59-7.28,5.43-10.89,12.09-11.38c4.21-0.31,7.19-2.6,8.37-6.45
	c3.02-9.85,9.88-16.94,21.59-22.31c8.34-3.82,17.73-5.81,28.69-6.07c0.65-0.01,1.3-0.02,1.95-0.02c14.49,0,27.95,3.63,40.03,10.8
	c1.48,0.88,2.46,1.54,2.73,2.68c0.21,0.94-0.11,1.99-1.06,3.43c-1.38,2.08-1.32,3.68-1.03,4.66c0.48,1.6,1.93,2.96,4.21,3.94
	c7.73,3.33,14.66,8.81,21.17,16.78c3.09,3.78,3.28,7.18,0.6,10.73c-5.2,6.89-8.71,14.63-10.45,23c-0.04,0.2-0.07,0.41-0.11,0.72
	c-0.37,2.81-1.52,3.2-2.66,3.2l-0.19,0c-0.74-0.03-1.98-0.07-2.45-2.98c-0.03-0.22-0.07-0.44-0.12-0.65
	c-1.12-4.54-4.01-7.13-8.59-7.7c-3.62-0.45-5.38-2.3-5.88-6.18c-1.04-8.11-5.73-12.8-14.76-14.76c-9.03-1.96-18.16-2.96-27.13-2.96
	c-9.19,0-18.53,1.04-27.74,3.11c-8.57,1.92-13.2,6.73-14.12,14.72c-0.44,3.79-2.23,5.61-5.98,6.08
	C219.43,118.11,216.49,120.96,215.78,125.75z M225.41,175.09c-0.49-9.42-0.43-19-0.37-28.27c0.03-5.21,0.07-10.59,0.01-15.88
	c-0.04-3.05,1.61-4.16,4.09-4.9c6.13-1.82,9.69-6.22,10.29-12.73c0.49-5.34,4.05-6.85,7.46-7.63c8.36-1.9,16.85-2.87,25.22-2.87
	c8.31,0,16.75,0.95,25.09,2.82c5.12,1.15,7.36,3.48,7.72,8.03c0.5,6.23,4.05,10.58,10,12.25c3.2,0.9,4.4,2.54,4.3,5.87
	c-0.15,5.23-0.13,10.33-0.1,16.27c0.01,2.45,0.03,5,0.02,7.75c-0.21,2.78-0.14,5.77-0.06,8.93c0.14,5.77,0.3,12.31-1.39,18.66
	c-5.46,20.55-23.96,34.36-46.02,34.36c-1.61,0-3.25-0.08-4.88-0.22C244.36,215.5,226.56,197.25,225.41,175.09z M257.03,254.54
	c-0.63,0.89-1.26,1.8-2,2.88c-1.76,2.55-3.59,5.19-5.59,7.66c-0.29,0.36-0.7,0.56-1.13,0.56c-0.83,0-1.61-0.7-2.29-1.31l-0.37-0.32
	c-2.36-1.93-4.7-3.87-7.2-5.93l-0.19-0.16c-3.11-2.57-6.22-5.14-9.36-7.69c-0.93-0.76-1.98-1.78-1.8-2.99
	c0.05-0.33,0.21-1.31,2.39-2.17c0.61-0.24,1.2-0.41,1.74-0.57l0.48-0.15c1.08-0.33,2.24-0.95,3.36-1.56c1.74-0.94,3.53-1.9,5.26-1.9
	c0.68,0,1.32,0.15,1.9,0.45c3.64,1.85,6.83,4.64,9.93,7.35c1.26,1.1,2.45,2.14,3.67,3.13c0.37,0.3,0.58,0.71,0.84,1.24
	c0.11,0.21,0.23,0.45,0.38,0.71l0.23,0.39L257.03,254.54z M277.4,314.21l0,30.51c-0.01,14.89-0.01,30.29,0.05,45.43
	c0.01,2.14-0.07,3.73-1.14,4.81c-0.5,0.5-1.45,1.18-3.96,1.18c-4.47-0.04-5.29-1.99-5.28-5.83c0.09-35.45,0.09-73.09,0.03-122.03
	c0-2.24,0.08-3.79,1.16-4.88c0.29-0.29,1.19-1.19,3.92-1.19V259l0.02,3.21c2.86,0,3.78,0.93,4.08,1.23c1.01,1.02,1.2,2.49,1.19,4.68
	C277.38,283.48,277.39,299.1,277.4,314.21z M277.54,251.5c-0.58,1.37-3.11,1.85-5.28,1.85c-2.18,0-4.72-0.49-5.3-1.86
	c-2.02-4.79-5.97-7.81-9.8-10.72c-1.9-1.45-3.87-2.95-5.67-4.73c-0.13-0.12-0.56-0.45-0.85-0.66c-0.87-0.62-1.5-1.11-1.72-1.88
	c-1.21-4.18-1.14-7.27,0.23-9.43c0.39-0.62,0.99-0.95,1.72-0.95c0.93,0,2,0.55,2.97,1.06c0.83,0.43,1.25,0.63,1.69,0.76
	c5.73,1.65,11.43,2.49,16.93,2.49c5.96,0,11.87-0.98,17.56-2.92c1.64-0.56,2.76-0.81,3.63-0.81c0.91,0,1.57,0.27,2.03,0.83
	c0.63,0.77,0.77,1.98,0.46,3.83l-0.07,0.44l0.05,0.44c0.36,3.29-1.28,5.3-3.1,6.98c-1.64,1.51-3.44,2.86-5.18,4.17
	C283.82,243.4,279.67,246.52,277.54,251.5z M223.85,361.27c0.07-8.31-5.76-16.83-16.57-16.6c-9.59,0.21-19.2,0.08-28.8,0.02
	c-2.41-0.02-6.48,0.18-7.06-0.03c-0.66-0.61-0.26-4.85-0.46-7.08c-0.02-0.19-0.02-0.38-0.02-0.56c-0.33-8.4-6.3-14.68-14.69-14.79
	c-15.24-0.19-30.49-0.19-45.73,0c-8.36,0.1-14.39,6.44-14.69,14.8c-0.06,1.6-0.2,3.21-0.02,4.79c0.27,2.42-0.73,2.98-3.02,2.96
	c-11.39-0.1-22.77-0.12-34.16-0.01c-9.25,0.08-15.59,6.52-15.6,15.68c-0.02,32.25-0.01,64.5,0.01,96.74c0,1.21,0.06,2.46,0.34,3.63
	c1.83,7.53,7.65,11.85,16.04,11.86c24.66,0.02,49.31,0.01,73.97,0.01c24.56,0,49.12-0.15,73.68,0.07
	c10.91,0.1,16.85-8.19,16.78-16.7C223.57,424.45,223.57,392.86,223.85,361.27z M115.18,329.61c13.16,0.38,26.34,0.09,39.51,0.1
	c5.92,0,8.79,2.87,8.84,8.82c0.06,6.19,0.06,6.19-6.17,6.19c-8.09,0-16.18,0-24.27,0c-9.03,0-18.06-0.07-27.09,0.04
	c-2.23,0.03-2.76-0.67-2.85-2.87C102.77,333.2,104.66,329.31,115.18,329.61z M216.16,455.87c-0.01,6.63-2.61,9.24-9.2,9.25
	c-24.56,0-49.12,0-73.68,0c-24.56,0-49.12,0-73.68,0c-6.28,0-9.01-2.66-9.02-8.86c-0.02-16.83,0.02-33.65-0.04-50.48
	c-0.01-2.03,0.12-3.08,2.49-1.85c2.04,1.05,4.36,1.05,6.63,1.04c18.54-0.01,37.07,0.05,55.61-0.05c2.49-0.01,3.34,0.64,3.13,3.15
	c-0.22,2.61-0.07,5.26-0.02,7.89c0.05,2.63,1.48,3.99,4.08,4c7.25,0.03,14.49,0.04,21.74-0.01c2.79-0.02,4.08-1.35,4.16-4.19
	c0.08-2.72,0.16-5.46-0.02-8.17c-0.15-2.19,0.71-2.67,2.75-2.66c18.25,0.07,36.51,0.02,54.76,0.05c3.03,0,6.05-0.02,8.83-1.39
	c1.22-0.6,1.49-0.15,1.49,0.95c0,0.75,0,1.5,0,2.26C216.18,423.16,216.18,439.51,216.16,455.87z M126.31,397.87
	c1.51-1.45,4.49-0.35,6.82-0.45c1.97-0.08,3.95,0.02,5.93-0.03c1.21-0.03,1.95,0.2,1.93,1.67c-0.07,3.85-0.06,7.71,0,11.56
	c0.02,1.36-0.55,1.84-1.84,1.82c-1.88-0.04-3.76-0.01-6.12-0.01c-1.94-0.21-5.06,1.05-6.62-0.49c-1.68-1.65-0.52-4.81-0.54-7.3
	C125.82,402.33,124.78,399.34,126.31,397.87z M216.14,389.4c-0.04,5.12-3.03,7.99-8.15,8.01c-9.51,0.03-19.01,0.01-28.52,0.01
	c-9.41,0-18.82-0.05-28.23,0.04c-2.08,0.02-2.99-0.34-2.91-2.72c0.13-3.69-1.2-4.85-4.92-4.87c-6.59-0.03-13.18-0.02-19.76,0
	c-4.12,0.01-5.28,1.03-5.23,5.13c0.02,2.07-0.72,2.45-2.6,2.45c-19.01-0.06-38.02-0.03-57.03-0.05c-5.13-0.01-8.13-2.87-8.17-7.98
	c-0.08-9.78-0.07-19.56,0.02-29.33c0.05-4.92,3.09-7.8,8.06-7.8c49.79-0.01,99.57-0.01,149.36,0c5.08,0,8.06,2.93,8.1,8.06
	C216.21,370.03,216.22,379.71,216.14,389.4z"/>
</svg>
